<?xml version="1.0" encoding="UTF-8"?>
<!-- Generator: visioncortex VTracer 0.6.1 -->
<svg version="1.1" xmlns="http://www.w3.org/2000/svg" width="1280" height="1280">
<path d="M0 0 C372.24 0 744.48 0 1128 0 C1128 13 1128 13 1127 15 C1126.80038096 16.71283054 1126.654497 18.43205482 1126.53515625 20.15234375 C1126.41998657 21.76411499 1126.41998657 21.76411499 1126.30249023 23.40844727 C1126.22329346 24.57303467 1126.14409668 25.73762207 1126.0625 26.9375 C1125.97750244 28.12851318 1125.89250488 29.31952637 1125.80493164 30.54663086 C1125.53259124 34.36414806 1125.26565752 38.18201226 1125 42 C1124.65062329 47.02118665 1124.29579587 52.04194282 1123.9375 57.0625 C1123.85830322 58.2270874 1123.77910645 59.3916748 1123.69750977 60.59155273 C1123.62072998 61.66606689 1123.5439502 62.74058105 1123.46484375 63.84765625 C1123.399021 64.79648682 1123.33319824 65.74531738 1123.26538086 66.72290039 C1123 69 1123 69 1122 71 C1121.80014068 72.743483 1121.65438451 74.49329473 1121.53515625 76.24414062 C1121.41998657 77.88594299 1121.41998657 77.88594299 1121.30249023 79.56091309 C1121.22329346 80.74737427 1121.14409668 81.93383545 1121.0625 83.15625 C1120.97750244 84.36945923 1120.89250488 85.58266846 1120.80493164 86.8326416 C1120.53257826 90.72149272 1120.26564915 94.6106855 1120 98.5 C1119.6506384 103.61493131 1119.29580916 108.72943858 1118.9375 113.84375 C1118.85830322 115.03021118 1118.77910645 116.21667236 1118.69750977 117.43908691 C1118.58234009 119.08088928 1118.58234009 119.08088928 1118.46484375 120.75585938 C1118.399021 121.72245483 1118.33319824 122.68905029 1118.26538086 123.68493652 C1118 126 1118 126 1117 128 C1116.80038096 129.71283054 1116.654497 131.43205482 1116.53515625 133.15234375 C1116.45837646 134.22685791 1116.38159668 135.30137207 1116.30249023 136.40844727 C1116.22329346 137.57303467 1116.14409668 138.73762207 1116.0625 139.9375 C1115.97750244 141.12851318 1115.89250488 142.31952637 1115.80493164 143.54663086 C1115.53259124 147.36414806 1115.26565752 151.18201226 1115 155 C1114.65062329 160.02118665 1114.29579587 165.04194282 1113.9375 170.0625 C1113.85830322 171.2270874 1113.77910645 172.3916748 1113.69750977 173.59155273 C1113.62072998 174.66606689 1113.5439502 175.74058105 1113.46484375 176.84765625 C1113.399021 177.79648682 1113.33319824 178.74531738 1113.26538086 179.72290039 C1113 182 1113 182 1112 184 C1111.80038096 185.71283054 1111.654497 187.43205482 1111.53515625 189.15234375 C1111.45837646 190.22685791 1111.38159668 191.30137207 1111.30249023 192.40844727 C1111.22329346 193.57303467 1111.14409668 194.73762207 1111.0625 195.9375 C1110.97750244 197.12851318 1110.89250488 198.31952637 1110.80493164 199.54663086 C1110.53259124 203.36414806 1110.26565752 207.18201226 1110 211 C1109.65062329 216.02118665 1109.29579587 221.04194282 1108.9375 226.0625 C1108.85830322 227.2270874 1108.77910645 228.3916748 1108.69750977 229.59155273 C1108.62072998 230.66606689 1108.5439502 231.74058105 1108.46484375 232.84765625 C1108.399021 233.79648682 1108.33319824 234.74531738 1108.26538086 235.72290039 C1108 238 1108 238 1107 240 C1106.80038096 241.71283054 1106.654497 243.43205482 1106.53515625 245.15234375 C1106.45837646 246.22685791 1106.38159668 247.30137207 1106.30249023 248.40844727 C1106.22329346 249.57303467 1106.14409668 250.73762207 1106.0625 251.9375 C1105.97750244 253.12851318 1105.89250488 254.31952637 1105.80493164 255.54663086 C1105.53259124 259.36414806 1105.26565752 263.18201226 1105 267 C1104.65062329 272.02118665 1104.29579587 277.04194282 1103.9375 282.0625 C1103.85830322 283.2270874 1103.77910645 284.3916748 1103.69750977 285.59155273 C1103.58234009 287.20332397 1103.58234009 287.20332397 1103.46484375 288.84765625 C1103.399021 289.79648682 1103.33319824 290.74531738 1103.26538086 291.72290039 C1103 294 1103 294 1102 296 C1101.80014068 297.743483 1101.65438451 299.49329473 1101.53515625 301.24414062 C1101.41998657 302.88594299 1101.41998657 302.88594299 1101.30249023 304.56091309 C1101.22329346 305.74737427 1101.14409668 306.93383545 1101.0625 308.15625 C1100.97750244 309.36945923 1100.89250488 310.58266846 1100.80493164 311.8326416 C1100.53257826 315.72149272 1100.26564915 319.6106855 1100 323.5 C1099.6506384 328.61493131 1099.29580916 333.72943858 1098.9375 338.84375 C1098.85830322 340.03021118 1098.77910645 341.21667236 1098.69750977 342.43908691 C1098.58234009 344.08088928 1098.58234009 344.08088928 1098.46484375 345.75585938 C1098.399021 346.72245483 1098.33319824 347.68905029 1098.26538086 348.68493652 C1098 351 1098 351 1097 353 C1096.80038096 354.71283054 1096.654497 356.43205482 1096.53515625 358.15234375 C1096.41998657 359.76411499 1096.41998657 359.76411499 1096.30249023 361.40844727 C1096.22329346 362.57303467 1096.14409668 363.73762207 1096.0625 364.9375 C1095.97750244 366.12851318 1095.89250488 367.31952637 1095.80493164 368.54663086 C1095.53259124 372.36414806 1095.26565752 376.18201226 1095 380 C1094.65062329 385.02118665 1094.29579587 390.04194282 1093.9375 395.0625 C1093.85830322 396.2270874 1093.77910645 397.3916748 1093.69750977 398.59155273 C1093.58234009 400.20332397 1093.58234009 400.20332397 1093.46484375 401.84765625 C1093.399021 402.79648682 1093.33319824 403.74531738 1093.26538086 404.72290039 C1093 407 1093 407 1092 409 C1091.80062951 410.68217706 1091.65461387 412.37081372 1091.53515625 414.06054688 C1091.41998657 415.64228699 1091.41998657 415.64228699 1091.30249023 417.25598145 C1091.22329346 418.39869507 1091.14409668 419.54140869 1091.0625 420.71875 C1090.97750244 421.88756714 1090.89250488 423.05638428 1090.80493164 424.26062012 C1090.53260472 428.00680327 1090.26566623 431.75333894 1090 435.5 C1089.65060758 440.42744214 1089.29578206 445.35444718 1088.9375 450.28125 C1088.85830322 451.42396362 1088.77910645 452.56667725 1088.69750977 453.74401855 C1088.58234009 455.32575867 1088.58234009 455.32575867 1088.46484375 456.93945312 C1088.399021 457.8705188 1088.33319824 458.80158447 1088.26538086 459.76086426 C1088 462 1088 462 1087 464 C1086.80038096 465.71283054 1086.654497 467.43205482 1086.53515625 469.15234375 C1086.41998657 470.76411499 1086.41998657 470.76411499 1086.30249023 472.40844727 C1086.22329346 473.57303467 1086.14409668 474.73762207 1086.0625 475.9375 C1085.97750244 477.12851318 1085.89250488 478.31952637 1085.80493164 479.54663086 C1085.53259124 483.36414806 1085.26565752 487.18201226 1085 491 C1084.65062329 496.02118665 1084.29579587 501.04194282 1083.9375 506.0625 C1083.85830322 507.2270874 1083.77910645 508.3916748 1083.69750977 509.59155273 C1083.58234009 511.20332397 1083.58234009 511.20332397 1083.46484375 512.84765625 C1083.399021 513.79648682 1083.33319824 514.74531738 1083.26538086 515.72290039 C1083 518 1083 518 1082 520 C1081.80038096 521.71283054 1081.654497 523.43205482 1081.53515625 525.15234375 C1081.41998657 526.76411499 1081.41998657 526.76411499 1081.30249023 528.40844727 C1081.22329346 529.57303467 1081.14409668 530.73762207 1081.0625 531.9375 C1080.97750244 533.12851318 1080.89250488 534.31952637 1080.80493164 535.54663086 C1080.53259124 539.36414806 1080.26565752 543.18201226 1080 547 C1079.65062329 552.02118665 1079.29579587 557.04194282 1078.9375 562.0625 C1078.85830322 563.2270874 1078.77910645 564.3916748 1078.69750977 565.59155273 C1078.58234009 567.20332397 1078.58234009 567.20332397 1078.46484375 568.84765625 C1078.399021 569.79648682 1078.33319824 570.74531738 1078.26538086 571.72290039 C1078 574 1078 574 1077 576 C1076.80014068 577.743483 1076.65438451 579.49329473 1076.53515625 581.24414062 C1076.45837646 582.33867554 1076.38159668 583.43321045 1076.30249023 584.56091309 C1076.22329346 585.74737427 1076.14409668 586.93383545 1076.0625 588.15625 C1075.97750244 589.36945923 1075.89250488 590.58266846 1075.80493164 591.8326416 C1075.53257826 595.72149272 1075.26564915 599.6106855 1075 603.5 C1074.6506384 608.61493131 1074.29580916 613.72943858 1073.9375 618.84375 C1073.85830322 620.03021118 1073.77910645 621.21667236 1073.69750977 622.43908691 C1073.62072998 623.53362183 1073.5439502 624.62815674 1073.46484375 625.75585938 C1073.399021 626.72245483 1073.33319824 627.68905029 1073.26538086 628.68493652 C1073 631 1073 631 1072 633 C1071.80038096 634.71283054 1071.654497 636.43205482 1071.53515625 638.15234375 C1071.41998657 639.76411499 1071.41998657 639.76411499 1071.30249023 641.40844727 C1071.22329346 642.57303467 1071.14409668 643.73762207 1071.0625 644.9375 C1070.97750244 646.12851318 1070.89250488 647.31952637 1070.80493164 648.54663086 C1070.53259124 652.36414806 1070.26565752 656.18201226 1070 660 C1069.65062329 665.02118665 1069.29579587 670.04194282 1068.9375 675.0625 C1068.85830322 676.2270874 1068.77910645 677.3916748 1068.69750977 678.59155273 C1068.58234009 680.20332397 1068.58234009 680.20332397 1068.46484375 681.84765625 C1068.399021 682.79648682 1068.33319824 683.74531738 1068.26538086 684.72290039 C1068 687 1068 687 1067 689 C1066.80038096 690.71283054 1066.654497 692.43205482 1066.53515625 694.15234375 C1066.41998657 695.76411499 1066.41998657 695.76411499 1066.30249023 697.40844727 C1066.22329346 698.57303467 1066.14409668 699.73762207 1066.0625 700.9375 C1065.97750244 702.12851318 1065.89250488 703.31952637 1065.80493164 704.54663086 C1065.53259124 708.36414806 1065.26565752 712.18201226 1065 716 C1064.65062329 721.02118665 1064.29579587 726.04194282 1063.9375 731.0625 C1063.85830322 732.2270874 1063.77910645 733.3916748 1063.69750977 734.59155273 C1063.58234009 736.20332397 1063.58234009 736.20332397 1063.46484375 737.84765625 C1063.399021 738.79648682 1063.33319824 739.74531738 1063.26538086 740.72290039 C1063 743 1063 743 1062 745 C1061.80038096 746.71283054 1061.654497 748.43205482 1061.53515625 750.15234375 C1061.41998657 751.76411499 1061.41998657 751.76411499 1061.30249023 753.40844727 C1061.22329346 754.57303467 1061.14409668 755.73762207 1061.0625 756.9375 C1060.97750244 758.12851318 1060.89250488 759.31952637 1060.80493164 760.54663086 C1060.53259124 764.36414806 1060.26565752 768.18201226 1060 772 C1059.65062329 777.02118665 1059.29579587 782.04194282 1058.9375 787.0625 C1058.85830322 788.2270874 1058.77910645 789.3916748 1058.69750977 790.59155273 C1058.58234009 792.20332397 1058.58234009 792.20332397 1058.46484375 793.84765625 C1058.399021 794.79648682 1058.33319824 795.74531738 1058.26538086 796.72290039 C1058 799 1058 799 1057 801 C1056.80014068 802.743483 1056.65438451 804.49329473 1056.53515625 806.24414062 C1056.45837646 807.33867554 1056.38159668 808.43321045 1056.30249023 809.56091309 C1056.22329346 810.74737427 1056.14409668 811.93383545 1056.0625 813.15625 C1055.97750244 814.36945923 1055.89250488 815.58266846 1055.80493164 816.8326416 C1055.53257826 820.72149272 1055.26564915 824.6106855 1055 828.5 C1054.6506384 833.61493131 1054.29580916 838.72943858 1053.9375 843.84375 C1053.85830322 845.03021118 1053.77910645 846.21667236 1053.69750977 847.43908691 C1053.62072998 848.53362183 1053.5439502 849.62815674 1053.46484375 850.75585938 C1053.399021 851.72245483 1053.33319824 852.68905029 1053.26538086 853.68493652 C1053 856 1053 856 1052 858 C1051.80038096 859.71283054 1051.654497 861.43205482 1051.53515625 863.15234375 C1051.41998657 864.76411499 1051.41998657 864.76411499 1051.30249023 866.40844727 C1051.22329346 867.57303467 1051.14409668 868.73762207 1051.0625 869.9375 C1050.97750244 871.12851318 1050.89250488 872.31952637 1050.80493164 873.54663086 C1050.53259124 877.36414806 1050.26565752 881.18201226 1050 885 C1049.65062329 890.02118665 1049.29579587 895.04194282 1048.9375 900.0625 C1048.85830322 901.2270874 1048.77910645 902.3916748 1048.69750977 903.59155273 C1048.58234009 905.20332397 1048.58234009 905.20332397 1048.46484375 906.84765625 C1048.399021 907.79648682 1048.33319824 908.74531738 1048.26538086 909.72290039 C1048 912 1048 912 1047 914 C1046.80062951 915.68217706 1046.65461387 917.37081372 1046.53515625 919.06054688 C1046.41998657 920.64228699 1046.41998657 920.64228699 1046.30249023 922.25598145 C1046.22329346 923.39869507 1046.14409668 924.54140869 1046.0625 925.71875 C1045.97750244 926.88756714 1045.89250488 928.05638428 1045.80493164 929.26062012 C1045.53260472 933.00680327 1045.26566623 936.75333894 1045 940.5 C1044.65060758 945.42744214 1044.29578206 950.35444718 1043.9375 955.28125 C1043.85830322 956.42396362 1043.77910645 957.56667725 1043.69750977 958.74401855 C1043.58234009 960.32575867 1043.58234009 960.32575867 1043.46484375 961.93945312 C1043.399021 962.8705188 1043.33319824 963.80158447 1043.26538086 964.76086426 C1043 967 1043 967 1042 969 C1041.80038096 970.71283054 1041.654497 972.43205482 1041.53515625 974.15234375 C1041.41998657 975.76411499 1041.41998657 975.76411499 1041.30249023 977.40844727 C1041.22329346 978.57303467 1041.14409668 979.73762207 1041.0625 980.9375 C1040.97750244 982.12851318 1040.89250488 983.31952637 1040.80493164 984.54663086 C1040.53259124 988.36414806 1040.26565752 992.18201226 1040 996 C1039.65062329 1001.02118665 1039.29579587 1006.04194282 1038.9375 1011.0625 C1038.85830322 1012.2270874 1038.77910645 1013.3916748 1038.69750977 1014.59155273 C1038.58234009 1016.20332397 1038.58234009 1016.20332397 1038.46484375 1017.84765625 C1038.399021 1018.79648682 1038.33319824 1019.74531738 1038.26538086 1020.72290039 C1038 1023 1038 1023 1037 1025 C1036.80038096 1026.71283054 1036.654497 1028.43205482 1036.53515625 1030.15234375 C1036.41998657 1031.76411499 1036.41998657 1031.76411499 1036.30249023 1033.40844727 C1036.22329346 1034.57303467 1036.14409668 1035.73762207 1036.0625 1036.9375 C1035.97750244 1038.12851318 1035.89250488 1039.31952637 1035.80493164 1040.54663086 C1035.53259124 1044.36414806 1035.26565752 1048.18201226 1035 1052 C1034.65062329 1057.02118665 1034.29579587 1062.04194282 1033.9375 1067.0625 C1033.85830322 1068.2270874 1033.77910645 1069.3916748 1033.69750977 1070.59155273 C1033.58234009 1072.20332397 1033.58234009 1072.20332397 1033.46484375 1073.84765625 C1033.399021 1074.79648682 1033.33319824 1075.74531738 1033.26538086 1076.72290039 C1033 1079 1033 1079 1032 1081 C1031.80014068 1082.743483 1031.65438451 1084.49329473 1031.53515625 1086.24414062 C1031.41998657 1087.88594299 1031.41998657 1087.88594299 1031.30249023 1089.56091309 C1031.22329346 1090.74737427 1031.14409668 1091.93383545 1031.0625 1093.15625 C1030.97750244 1094.36945923 1030.89250488 1095.58266846 1030.80493164 1096.8326416 C1030.53257826 1100.72149272 1030.26564915 1104.6106855 1030 1108.5 C1029.6506384 1113.61493131 1029.29580916 1118.72943858 1028.9375 1123.84375 C1028.85830322 1125.03021118 1028.77910645 1126.21667236 1028.69750977 1127.43908691 C1028.58234009 1129.08088928 1028.58234009 1129.08088928 1028.46484375 1130.75585938 C1028.399021 1131.72245483 1028.33319824 1132.68905029 1028.26538086 1133.68493652 C1028 1136 1028 1136 1027 1138 C1026.77141886 1140.0374763 1026.58975722 1142.08040303 1026.4375 1144.125 C1026.31181641 1145.76855469 1026.31181641 1145.76855469 1026.18359375 1147.4453125 C1026.09271484 1148.70988281 1026.09271484 1148.70988281 1026 1150 C1019.19145793 1152.77899676 1012.19314232 1154.59818418 1005.09033203 1156.44970703 C993.1950625 1159.58121106 981.38507695 1163.02765535 969.58618164 1166.5012207 C960.6573842 1169.12405966 951.6853472 1171.56320963 942.6875 1173.9375 C934.40048333 1176.14345687 926.15964043 1178.49865609 917.92578125 1180.89453125 C912.18197705 1182.55479446 906.42848829 1184.15921621 900.65234375 1185.703125 C899.50862305 1186.00887451 898.36490234 1186.31462402 897.18652344 1186.62963867 C894.90011546 1187.23920921 892.61303183 1187.8462526 890.32519531 1188.45043945 C884.89108225 1189.89793112 879.54175122 1191.44428501 874.22338867 1193.26977539 C869.96992399 1194.66673519 865.63675044 1195.78297632 861.3125 1196.9375 C859.36440529 1197.46288193 857.41648828 1197.98892322 855.46875 1198.515625 C854.53160156 1198.76892578 853.59445312 1199.02222656 852.62890625 1199.28320312 C848.07842383 1200.52393645 843.54807044 1201.83176112 839.015625 1203.13671875 C831.93162459 1205.16465151 824.81003841 1207.05039446 817.6875 1208.9375 C808.17591485 1211.47199533 798.71351118 1214.14341389 789.3125 1217.0625 C784.5985068 1218.52429116 779.87183928 1219.8847769 775.10546875 1221.1640625 C759.71635243 1225.30654161 744.39752719 1229.71009844 729.0859375 1234.12890625 C721.98617889 1236.1722905 714.86452768 1238.1092874 707.72265625 1240 C701.79375989 1241.59265212 695.89792846 1243.29689032 690 1245 C679.25610735 1248.08799518 668.49343492 1251.07448425 657.6875 1253.9375 C650.43166294 1255.8689627 643.21379152 1257.91783745 636 1260 C633.81269852 1260.62569441 631.6251946 1261.25068149 629.4375 1261.875 C628.29152344 1262.20242188 627.14554688 1262.52984375 625.96484375 1262.8671875 C616.94140624 1265.4453125 616.94140624 1265.4453125 614.24536133 1266.21557617 C612.41314275 1266.73909047 610.58094879 1267.26269092 608.7487793 1267.78637695 C604.87995207 1268.89210574 601.01106438 1269.99758217 597.140625 1271.09765625 C590.6897036 1272.93334471 584.2477662 1274.7977682 577.8125 1276.6875 C576.71470215 1277.00956421 576.71470215 1277.00956421 575.59472656 1277.33813477 C572.71454279 1278.18626417 569.8486579 1279.05044737 567 1280 C561.70640628 1280.33843241 557.77714548 1279.4913744 552.8125 1277.6875 C547.34457516 1275.76152082 541.91732814 1274.15135309 536.2734375 1272.8046875 C525.5589452 1270.17081469 514.96992958 1267.01113582 504.39355469 1263.87548828 C495.55477446 1261.26301078 486.66670265 1258.82671461 477.77783203 1256.39111328 C469.08929735 1254.01035118 460.43423634 1251.55089214 451.8125 1248.9375 C444.82647983 1246.82088793 437.82754282 1244.8417374 430.765625 1242.9921875 C419.92511408 1240.13587031 409.14728875 1237.06282965 398.39941406 1233.87744141 C387.73103024 1230.72530671 377.00277364 1227.78709633 366.25 1224.9375 C359.8316327 1223.23452939 353.44529208 1221.43616406 347.06542969 1219.59472656 C342.87901861 1218.3892777 338.6891215 1217.19598786 334.5 1216 C332.68228513 1215.48049161 330.86457668 1214.96096078 329.046875 1214.44140625 C326.07863199 1213.59325788 323.11005443 1212.74632864 320.140625 1211.90234375 C314.79948864 1210.38245817 309.46709152 1208.84151488 304.14746094 1207.24780273 C295.51844341 1204.67021214 286.83675318 1202.35105112 278.10571289 1200.14306641 C273.04096096 1198.84954266 268.07978516 1197.4189462 263.13525391 1195.72314453 C259.68096268 1194.55328281 256.18710546 1193.52472375 252.6875 1192.5 C251.94604736 1192.28206787 251.20459473 1192.06413574 250.44067383 1191.83959961 C246.37493027 1190.65586866 242.30593632 1189.55115872 238.1875 1188.5625 C232.79092746 1187.25783411 227.49764952 1185.67632521 222.1875 1184.0625 C215.07618067 1181.90194865 207.95584035 1179.87533914 200.765625 1177.9921875 C189.92511408 1175.13587031 179.14728875 1172.06282965 168.39941406 1168.87744141 C157.73103024 1165.72530671 147.00277364 1162.78709633 136.25 1159.9375 C126.865619 1157.44367837 117.51649764 1154.84225433 108.25 1151.9375 C106.80367187 1151.48697266 106.80367187 1151.48697266 105.328125 1151.02734375 C103 1150 103 1150 101 1147 C100.8046875 1143.86328125 100.8046875 1143.86328125 100.875 1140.3125 C100.89304687 1139.13300781 100.91109375 1137.95351562 100.9296875 1136.73828125 C100.95289063 1135.83464844 100.97609375 1134.93101563 101 1134 C100.67 1134 100.34 1134 100 1134 C99.97305149 1132.04174127 99.95362782 1130.08337774 99.9375 1128.125 C99.92589844 1127.03445313 99.91429687 1125.94390625 99.90234375 1124.8203125 C100 1122 100 1122 101 1120 C100.34 1120 99.68 1120 99 1120 C98.505 1112.575 98.505 1112.575 98 1105 C97.67 1105 97.34 1105 97 1105 C97 1100.38 97 1095.76 97 1091 C96.67 1091 96.34 1091 96 1091 C95.97305149 1089.04174127 95.95362782 1087.08337774 95.9375 1085.125 C95.92589844 1084.03445313 95.91429687 1082.94390625 95.90234375 1081.8203125 C96 1079 96 1079 97 1077 C96.34 1077 95.68 1077 95 1077 C94.34 1068.09 93.68 1059.18 93 1050 C92.67 1050 92.34 1050 92 1050 C92 1045.38 92 1040.76 92 1036 C91.67 1036 91.34 1036 91 1036 C91 1031.38 91 1026.76 91 1022 C90.67 1022 90.34 1022 90 1022 C90.01160156 1021.07316406 90.02320313 1020.14632812 90.03515625 1019.19140625 C90.04417969 1017.99386719 90.05320312 1016.79632812 90.0625 1015.5625 C90.07410156 1014.36753906 90.08570313 1013.17257812 90.09765625 1011.94140625 C90.33901792 1009.11126659 90.33901792 1009.11126659 89 1008 C88.76472227 1005.65012738 88.58613583 1003.29443961 88.4375 1000.9375 C88.35371094 999.64714844 88.26992187 998.35679687 88.18359375 997.02734375 C88.12300781 996.02832031 88.06242187 995.02929688 88 994 C87.67 994 87.34 994 87 994 C87 989.05 87 984.1 87 979 C86.67 979 86.34 979 86 979 C85.27895233 971.13285484 84.91128352 963.38543608 85.0625 955.484375 C85.2869513 953.05725133 85.2869513 953.05725133 84 952 C83.76346477 949.47403741 83.57826308 946.96892793 83.4375 944.4375 C83.39431641 943.72658203 83.35113281 943.01566406 83.30664062 942.28320312 C83.20028223 940.52238088 83.09961154 938.7612168 83 937 C82.67 937 82.34 937 82 937 C82 932.71 82 928.42 82 924 C81.67 924 81.34 924 81 924 C81 919.38 81 914.76 81 910 C80.67 910 80.34 910 80 910 C80.01160156 909.07316406 80.02320313 908.14632812 80.03515625 907.19140625 C80.04417969 905.99386719 80.05320312 904.79632812 80.0625 903.5625 C80.07410156 902.36753906 80.08570313 901.17257812 80.09765625 899.94140625 C80.33901792 897.11126659 80.33901792 897.11126659 79 896 C78.76346477 893.47403741 78.57826308 890.96892793 78.4375 888.4375 C78.39431641 887.72658203 78.35113281 887.01566406 78.30664062 886.28320312 C78.20028223 884.52238088 78.09961154 882.7612168 78 881 C77.67 881 77.34 881 77 881 C77 876.38 77 871.76 77 867 C76.67 867 76.34 867 76 867 C74.515 846.21 74.515 846.21 73 825 C72.67 825 72.34 825 72 825 C72 820.38 72 815.76 72 811 C71.67 811 71.34 811 71 811 C71 806.38 71 801.76 71 797 C70.67 797 70.34 797 70 797 C70.01160156 796.14535156 70.02320313 795.29070313 70.03515625 794.41015625 C70.04417969 793.30542969 70.05320312 792.20070313 70.0625 791.0625 C70.07410156 789.96035156 70.08570313 788.85820313 70.09765625 787.72265625 C70.31262571 785.08552366 70.31262571 785.08552366 69 784 C68.76346477 781.47403741 68.57826308 778.96892793 68.4375 776.4375 C68.39431641 775.72658203 68.35113281 775.01566406 68.30664062 774.28320312 C68.20028223 772.52238088 68.09961154 770.7612168 68 769 C67.67 769 67.34 769 67 769 C67 764.38 67 759.76 67 755 C66.67 755 66.34 755 66 755 C66 750.38 66 745.76 66 741 C65.67 741 65.34 741 65 741 C65.01160156 740.14535156 65.02320313 739.29070313 65.03515625 738.41015625 C65.04417969 737.30542969 65.05320312 736.20070313 65.0625 735.0625 C65.07410156 733.96035156 65.08570313 732.85820313 65.09765625 731.72265625 C65.31262571 729.08552366 65.31262571 729.08552366 64 728 C63.79016721 725.85795689 63.63176615 723.71075887 63.5 721.5625 C63.35852674 717.12215669 63.35852674 717.12215669 62 713 C61.92883618 710.62597499 61.91590915 708.24999323 61.9375 705.875 C61.94652344 704.59367188 61.95554688 703.31234375 61.96484375 701.9921875 C61.97644531 701.00476563 61.98804688 700.01734375 62 699 C61.67 699 61.34 699 61 699 C61 694.38 61 689.76 61 685 C60.67 685 60.34 685 60 685 C60.01160156 684.14535156 60.02320313 683.29070313 60.03515625 682.41015625 C60.04417969 681.30542969 60.05320313 680.20070313 60.0625 679.0625 C60.07410156 677.96035156 60.08570313 676.85820313 60.09765625 675.72265625 C60.31262571 673.08552366 60.31262571 673.08552366 59 672 C58.76321284 669.30764224 58.57801975 666.63501844 58.4375 663.9375 C58.39431641 663.17888672 58.35113281 662.42027344 58.30664062 661.63867188 C58.20026367 659.75934562 58.09960066 657.87969756 58 656 C57.67 656 57.34 656 57 656 C57 651.71 57 647.42 57 643 C56.67 643 56.34 643 56 643 C56 638.38 56 633.76 56 629 C55.67 629 55.34 629 55 629 C55.01160156 628.14535156 55.02320313 627.29070313 55.03515625 626.41015625 C55.04417969 625.30542969 55.05320313 624.20070313 55.0625 623.0625 C55.07410156 621.96035156 55.08570313 620.85820313 55.09765625 619.72265625 C55.31262571 617.08552366 55.31262571 617.08552366 54 616 C53.76346477 613.47403741 53.57826308 610.96892793 53.4375 608.4375 C53.39431641 607.72658203 53.35113281 607.01566406 53.30664062 606.28320312 C53.20028223 604.52238088 53.09961154 602.7612168 53 601 C52.67 601 52.34 601 52 601 C52 596.38 52 591.76 52 587 C51.67 587 51.34 587 51 587 C50.97306425 584.87506859 50.95363372 582.75004088 50.9375 580.625 C50.92589844 579.44164062 50.91429687 578.25828125 50.90234375 577.0390625 C51 574 51 574 52 572 C51.34 572 50.68 572 50 572 C49.34 563.09 48.68 554.18 48 545 C47.67 545 47.34 545 47 545 C47 540.38 47 535.76 47 531 C46.67 531 46.34 531 46 531 C46 526.38 46 521.76 46 517 C45.67 517 45.34 517 45 517 C45.01160156 516.07316406 45.02320313 515.14632812 45.03515625 514.19140625 C45.04417969 512.99386719 45.05320313 511.79632813 45.0625 510.5625 C45.07410156 509.36753906 45.08570313 508.17257812 45.09765625 506.94140625 C45.33901792 504.11126659 45.33901792 504.11126659 44 503 C43.76472227 500.65012738 43.58613583 498.29443961 43.4375 495.9375 C43.35371094 494.64714844 43.26992187 493.35679687 43.18359375 492.02734375 C43.12300781 491.02832031 43.06242187 490.02929688 43 489 C42.67 489 42.34 489 42 489 C42 484.38 42 479.76 42 475 C41.67 475 41.34 475 41 475 C41 470.38 41 465.76 41 461 C40.67 461 40.34 461 40 461 C40.01160156 460.07316406 40.02320313 459.14632813 40.03515625 458.19140625 C40.04417969 456.99386719 40.05320313 455.79632813 40.0625 454.5625 C40.07410156 453.36753906 40.08570313 452.17257812 40.09765625 450.94140625 C40.33901792 448.11126659 40.33901792 448.11126659 39 447 C38.76346477 444.47403741 38.57826308 441.96892793 38.4375 439.4375 C38.39431641 438.72658203 38.35113281 438.01566406 38.30664062 437.28320312 C38.20028223 435.52238088 38.09961154 433.7612168 38 432 C37.67 432 37.34 432 37 432 C37 427.71 37 423.42 37 419 C36.67 419 36.34 419 36 419 C36 414.38 36 409.76 36 405 C35.67 405 35.34 405 35 405 C35.01160156 404.07316406 35.02320313 403.14632813 35.03515625 402.19140625 C35.04417969 400.99386719 35.05320313 399.79632813 35.0625 398.5625 C35.07410156 397.36753906 35.08570313 396.17257812 35.09765625 394.94140625 C35.33901792 392.11126659 35.33901792 392.11126659 34 391 C33.76346477 388.47403741 33.57826308 385.96892793 33.4375 383.4375 C33.39431641 382.72658203 33.35113281 382.01566406 33.30664062 381.28320312 C33.20028223 379.52238088 33.09961154 377.7612168 33 376 C32.67 376 32.34 376 32 376 C32 371.38 32 366.76 32 362 C31.67 362 31.34 362 31 362 C31 357.71 31 353.42 31 349 C30.67 349 30.34 349 30 349 C29.97305149 347.04174127 29.95362782 345.08337774 29.9375 343.125 C29.92589844 342.03445313 29.91429688 340.94390625 29.90234375 339.8203125 C30 337 30 337 31 335 C30.34 335 29.68 335 29 335 C28.505 327.575 28.505 327.575 28 320 C27.67 320 27.34 320 27 320 C27 315.38 27 310.76 27 306 C26.67 306 26.34 306 26 306 C26 301.38 26 296.76 26 292 C25.67 292 25.34 292 25 292 C25.01160156 291.14535156 25.02320312 290.29070312 25.03515625 289.41015625 C25.04417969 288.30542969 25.05320312 287.20070313 25.0625 286.0625 C25.07410156 284.96035156 25.08570312 283.85820312 25.09765625 282.72265625 C25.31262571 280.08552366 25.31262571 280.08552366 24 279 C23.76346477 276.47403741 23.57826308 273.96892793 23.4375 271.4375 C23.39431641 270.72658203 23.35113281 270.01566406 23.30664062 269.28320312 C23.20028223 267.52238088 23.09961154 265.7612168 23 264 C22.67 264 22.34 264 22 264 C22 259.38 22 254.76 22 250 C21.67 250 21.34 250 21 250 C21 245.38 21 240.76 21 236 C20.67 236 20.34 236 20 236 C20.01160156 235.14535156 20.02320312 234.29070312 20.03515625 233.41015625 C20.04417969 232.30542969 20.05320312 231.20070312 20.0625 230.0625 C20.07410156 228.96035156 20.08570312 227.85820312 20.09765625 226.72265625 C20.31262571 224.08552366 20.31262571 224.08552366 19 223 C18.76346477 220.47403741 18.57826308 217.96892793 18.4375 215.4375 C18.39431641 214.72658203 18.35113281 214.01566406 18.30664062 213.28320312 C18.20028223 211.52238088 18.09961154 209.7612168 18 208 C17.67 208 17.34 208 17 208 C17 203.38 17 198.76 17 194 C16.67 194 16.34 194 16 194 C16 189.38 16 184.76 16 180 C15.67 180 15.34 180 15 180 C15.01160156 179.14535156 15.02320312 178.29070312 15.03515625 177.41015625 C15.04417969 176.30542969 15.05320312 175.20070312 15.0625 174.0625 C15.07410156 172.96035156 15.08570312 171.85820312 15.09765625 170.72265625 C15.31262571 168.08552366 15.31262571 168.08552366 14 167 C13.76346477 164.47403741 13.57826308 161.96892793 13.4375 159.4375 C13.39431641 158.72658203 13.35113281 158.01566406 13.30664062 157.28320312 C13.20028223 155.52238088 13.09961154 153.7612168 13 152 C12.67 152 12.34 152 12 152 C12 147.38 12 142.76 12 138 C11.67 138 11.34 138 11 138 C11 133.38 11 128.76 11 124 C10.67 124 10.34 124 10 124 C10.01160156 123.14535156 10.02320312 122.29070312 10.03515625 121.41015625 C10.04417969 120.30542969 10.05320312 119.20070313 10.0625 118.0625 C10.07410156 116.96035156 10.08570312 115.85820313 10.09765625 114.72265625 C10.31262571 112.08552366 10.31262571 112.08552366 9 111 C8.76346477 108.47403741 8.57826308 105.96892793 8.4375 103.4375 C8.37272461 102.37112305 8.37272461 102.37112305 8.30664062 101.28320312 C8.20028223 99.52238088 8.09961154 97.7612168 8 96 C7.67 96 7.34 96 7 96 C7 91.38 7 86.76 7 82 C6.67 82 6.34 82 6 82 C5.97306425 79.87506859 5.95363372 77.75004088 5.9375 75.625 C5.92589844 74.44164063 5.91429688 73.25828125 5.90234375 72.0390625 C6 69 6 69 7 67 C6.34 67 5.68 67 5 67 C4.34 58.09 3.68 49.18 3 40 C2.67 40 2.34 40 2 40 C2 35.38 2 30.76 2 26 C1.67 26 1.34 26 1 26 C1 21.38 1 16.76 1 12 C0.67 12 0.34 12 0 12 C0 8.04 0 4.08 0 0 Z M63 710 C64 713 64 713 64 713 Z M76 852 C77 854 77 854 77 854 Z " fill="#E05027" transform="translate(74,0)"/>
<path d="M0 0 C1.31658515 0.00032605 1.31658515 0.00032605 2.65976799 0.00065869 C3.67287583 -0.00393993 4.68598368 -0.00853855 5.72979176 -0.01327652 C6.85342523 -0.00813313 7.9770587 -0.00298975 9.13474166 0.0023095 C10.92022702 -0.00131451 10.92022702 -0.00131451 12.74178278 -0.00501174 C16.07091639 -0.00970064 19.39982217 -0.00532562 22.72893521 0.00275026 C26.34119316 0.00934376 29.9534378 0.00442122 33.56569755 0.00095242 C40.74130972 -0.0040816 47.91687648 0.00174462 55.09248302 0.01086639 C63.6825206 0.02131617 72.27254759 0.02051288 80.86259013 0.01948035 C97.69462958 0.01790335 114.5266461 0.02836305 131.35867745 0.04398537 C146.08832263 0.05765538 160.81796369 0.06729805 175.54761398 0.07330865 C278.81337242 0.1166223 382.07903111 0.27101318 530.14572144 0.64053965 C539.96534527 0.66663427 549.78496976 0.69229955 559.60459793 0.71671456 C580.26146852 0.76812911 600.91832454 0.82208206 621.57516038 0.88612527 C623.31789321 0.89152085 625.06062606 0.89691231 626.80335891 0.90229958 C627.65746613 0.90494092 628.51157335 0.90758225 629.39156261 0.91030362 C635.33297714 0.92843572 641.274395 0.94410472 647.21581924 0.95867318 C654.29641163 0.97606789 661.37698357 0.99682135 668.45755192 1.02223488 C672.02669978 1.03495992 675.5958338 1.04610224 679.16499817 1.05296355 C682.99818003 1.0603855 686.83130918 1.07542597 690.66446579 1.09132928 C692.34991599 1.09279653 692.34991599 1.09279653 694.06941569 1.09429342 C695.08252353 1.0997678 696.09563138 1.10524219 697.13943946 1.11088246 C698.0171629 1.1135405 698.89488633 1.11619855 699.79920745 1.11893713 C701.89960372 1.24954766 701.89960372 1.24954766 703.89960372 2.24954766 C702.23182735 33.90163908 699.05156913 65.35707227 695.68085372 96.86356133 C695.59288591 97.68784851 695.50491809 98.51213568 695.41428459 99.36140126 C694.9984709 103.25731905 694.58032987 107.15294205 694.15592086 111.04793328 C693.31354299 118.85278332 692.61546074 126.64194005 692.1547612 134.47992486 C691.89960372 137.24954766 691.89960372 137.24954766 690.89960372 140.24954766 C638.43979031 140.41867149 585.97996003 140.58213074 533.52011305 140.74050331 C530.53374018 140.74952007 527.54736734 140.7585467 524.56099451 140.76757354 C333.11392148 141.34587909 333.11392148 141.34587909 227.33710372 141.31204766 C226.32456307 141.31162343 225.31202241 141.3111992 224.26879871 141.31076211 C200.14572238 141.30046911 176.02266067 141.28216175 151.89960372 141.24954766 C151.98524581 142.18080971 152.0708879 143.11207177 152.15912521 144.07155389 C152.4823384 147.59133954 152.80465782 151.11120484 153.12641037 154.6311242 C153.26473504 156.14244752 153.40339603 157.65374011 153.54242599 159.16499871 C154.40483641 168.54234992 155.211886 177.91991429 155.89960372 187.31204766 C156.66855846 197.6567426 157.60414151 207.98030054 158.59735763 218.30530328 C159.35646311 226.20774669 160.07208424 234.10898228 160.63593185 242.02835625 C160.72294357 243.21509942 160.80995529 244.40184258 160.89960372 245.62454766 C160.96216102 246.49183306 161.02471832 247.35911847 161.08917129 248.25268525 C161.68762574 256.20745014 162.52142321 264.11765266 163.46210372 272.03861016 C163.66996505 273.81328667 163.66996505 273.81328667 163.8820256 275.62381524 C164.21912283 278.49931271 164.55834152 281.37454204 164.89960372 284.24954766 C186.96845515 284.39278694 209.03736583 284.52506286 231.10631073 284.65300149 C234.99528146 284.67556275 238.88425076 284.69835031 242.77321899 284.72133797 C303.08697368 285.07740159 363.40037087 285.30053395 423.7149514 285.4418065 C433.97322741 285.46584239 444.23149981 285.49121559 454.48977167 285.51695677 C461.97755465 285.53572609 469.46533812 285.55429961 476.95312156 285.57288252 C478.82892774 285.57754126 480.7047339 285.58220748 482.58054005 285.58688118 C505.16563096 285.64313665 527.75071638 285.69404061 550.33584389 285.73315676 C565.68302338 285.75982969 581.03017532 285.79341569 596.37732518 285.83371025 C605.66680826 285.85782704 614.95626253 285.87592588 624.24577161 285.88603857 C630.51481676 285.89338716 636.78381878 285.90787248 643.05283527 285.92818401 C646.65205566 285.93962034 650.25120649 285.94775604 653.8504467 285.94722706 C657.73029029 285.94672462 661.60998717 285.96144708 665.48979843 285.97780389 C666.63009801 285.97518689 667.77039759 285.9725699 668.9452517 285.96987361 C669.97423754 285.97672254 671.00322338 285.98357147 672.06339061 285.99062794 C672.95569611 285.99236419 673.84800162 285.99410044 674.76734668 285.99588931 C676.89960372 286.24954766 676.89960372 286.24954766 678.89960372 288.24954766 C678.69404566 291.22242629 678.36263989 294.06262764 677.92304122 297.00345391 C677.66335042 298.88467437 677.40400851 300.76594303 677.14496505 302.64725274 C677.00297683 303.64979089 676.86098861 304.65232903 676.71469772 305.68524712 C674.1456326 323.93806201 672.13037164 342.18483976 670.71210372 360.56204766 C670.59157135 362.11715554 670.59157135 362.11715554 670.46860397 363.70367974 C670.15374475 367.78277103 669.84145243 371.86204136 669.53404891 375.94170159 C668.90989529 384.21754696 668.20611477 392.48362123 667.46210372 400.74954766 C667.28370435 402.74725024 667.10530758 404.74495305 666.92702377 406.74266595 C666.80038382 408.16088301 666.6735793 409.57908539 666.54662216 410.9972741 C665.52529526 422.41345972 664.52655982 433.83164922 663.52460372 445.24954766 C663.3652333 447.06414986 663.3652333 447.06414986 663.20264328 448.9154107 C661.99235686 462.69897496 660.79025142 476.48319707 659.60663497 490.26907891 C659.4464186 492.13401498 659.4464186 492.13401498 659.28296554 494.03662652 C658.77870476 499.90889416 658.27570858 505.78126512 657.77509201 511.65384454 C656.6448676 524.86547726 655.46308709 538.07158754 654.25344169 551.27613419 C652.74945243 567.70044765 651.29188083 584.12787159 649.89960372 600.56204766 C649.77606616 602.02003305 649.77606616 602.02003305 649.65003288 603.50747269 C649.06470371 610.42134168 648.48186998 617.33542015 647.89960372 624.24954766 C646.66393411 638.92252092 645.41994521 653.59472141 644.15607345 668.26529473 C643.89180151 671.34033336 643.62948705 674.41553498 643.36737716 677.4907586 C642.92920463 682.62207728 642.48289569 687.75263351 642.03095138 692.88275689 C641.86174585 694.81627255 641.69502757 696.7500077 641.53095138 698.68396538 C641.30394864 701.35361709 641.06776291 704.02230564 640.82929122 706.69095391 C640.76482803 707.47308251 640.70036483 708.25521111 640.63394821 709.06104058 C640.2384641 713.36227859 639.6466854 717.24631343 637.89960372 721.24954766 C635.1476506 722.64578789 635.1476506 722.64578789 631.61835372 723.55814141 C630.98163742 723.73036721 630.34492111 723.90259301 629.68891037 724.08003777 C627.59798433 724.6396496 625.49971916 725.16308678 623.39960372 725.68704766 C621.93997904 726.07117879 620.48099737 726.45776109 619.0226506 726.84671563 C616.06308854 727.6320305 613.1004804 728.40346869 610.13397872 729.16214532 C604.20790777 730.67856355 598.30493038 732.27962877 592.39960372 733.87454766 C591.33113204 734.1598333 590.26266037 734.44511895 589.16181076 734.73904961 C582.50198559 736.52142136 575.88257835 738.4096461 569.27460372 740.37454766 C554.77283193 744.67653293 540.15003066 748.54227707 525.5460881 752.47928399 C514.16700135 755.54766759 502.80035075 758.64767682 491.46063888 761.85892266 C483.60829756 764.07372091 475.72477478 766.16470611 467.83710372 768.24954766 C459.19756225 770.53369153 450.58900488 772.88515147 442.02460372 775.43704766 C433.99898671 777.8237902 425.94175663 780.07134939 417.86054122 782.26126641 C416.85953384 782.53292626 415.85852645 782.80458611 414.82718551 783.08447808 C409.56454373 784.50922448 404.29800226 785.91678985 399.02411544 787.29935235 C389.87178699 789.71282425 380.82226943 792.13695138 371.94647872 795.44095391 C351.30893221 802.95168238 337.16220604 799.87414112 317.12470138 792.72415704 C310.94862284 790.53310418 304.65060906 788.81238371 298.33710372 787.06204766 C296.06480931 786.41025795 293.79267149 785.75792207 291.52069747 785.10501641 C283.90826282 782.94899646 276.24968818 780.98625727 268.58466232 779.02737969 C254.50298063 775.40960418 240.51433839 771.45673232 226.51386154 767.53909844 C222.04760379 766.28996875 217.5794391 765.04778868 213.11054122 763.80814141 C212.38909423 763.60799935 211.66764724 763.40785729 210.92433822 763.20165032 C209.46249733 762.79615309 208.00064938 762.39068134 206.5387944 761.98523492 C196.06579171 759.08031764 185.59535229 756.16655322 175.13007247 753.23392266 C158.09038576 748.46091487 141.04810833 743.71790648 123.94061935 739.19315118 C114.73975581 736.75416194 105.55688101 734.25398666 96.38321579 731.71469659 C94.84629997 731.28941832 93.30914101 730.86501751 91.77170455 730.4416253 C83.7967869 728.24382819 75.85296326 725.97053146 67.95429122 723.51126641 C67.27391799 723.29976449 66.59354476 723.08826257 65.89255416 722.87035149 C61.15670115 721.37809637 61.15670115 721.37809637 58.89960372 720.24954766 C56.88114755 712.48778165 56.46041263 704.28812452 55.93475997 696.31204766 C55.81650108 694.63441338 55.81650108 694.63441338 55.69585311 692.9228875 C55.44587171 689.36545866 55.2034698 685.80757049 54.96210372 682.24954766 C54.64381149 677.62431241 54.32191134 672.99934083 53.99725997 668.37454766 C53.9134407 667.17926949 53.82962142 665.98399132 53.74326217 664.75249261 C53.00191198 654.34879291 52.14397066 643.95668407 51.2659539 633.56386155 C50.27026205 621.77587551 49.31500725 609.98545141 48.39960372 598.19095391 C48.30691868 596.997615 48.30691868 596.997615 48.21236122 595.78016824 C47.83617272 590.93353926 47.4613573 586.08680491 47.08710372 581.24002618 C46.58792333 574.77603005 46.087472 568.3121331 45.58600509 561.84831399 C45.40103059 559.45938172 45.21716014 557.07036627 45.03339279 554.68134087 C44.39219025 546.37662658 43.72049296 538.07540207 43.00897872 529.77640313 C42.79263079 527.22399212 42.57668585 524.67154725 42.36078537 522.11909837 C42.15427782 519.70649819 41.94013566 517.2946547 41.7257756 514.88274163 C41.60105551 513.41381456 41.47668719 511.94485756 41.35272872 510.47586602 C41.24090255 509.19739297 41.12907638 507.91891991 41.01386154 506.60170525 C40.91003766 503.55566418 41.24678873 501.19797024 41.89960372 498.24954766 C59.85801737 498.20287553 77.81641533 498.16758235 95.77487648 498.14592332 C104.11285954 498.13560041 112.45080497 498.12152076 120.78876388 498.09866875 C128.05413581 498.07876586 135.31948049 498.06583861 142.58487892 498.06137067 C146.43365566 498.05875801 150.28235444 498.05259623 154.13110626 498.03808755 C157.75076305 498.02455253 161.37030947 498.02031669 164.98998916 498.0233323 C166.95770822 498.02251632 168.92541515 498.01173339 170.89310348 498.00070733 C172.63895736 498.00483132 172.63895736 498.00483132 174.42008102 498.00903863 C175.94380482 498.00627325 175.94380482 498.00627325 177.49831092 498.003452 C179.89960372 498.24954766 179.89960372 498.24954766 181.89960372 500.24954766 C182.32458389 502.70813661 182.61438086 505.08188283 182.83710372 507.56204766 C182.91646163 508.37254571 182.99581954 509.18304375 183.07758224 510.01810235 C184.08220435 520.60680046 184.87866418 531.21614711 185.7191838 541.8188836 C186.75027875 554.76075122 187.96234044 567.67870442 189.25116622 580.59720391 C190.19633363 590.16797601 191.09125798 599.62424482 190.89960372 609.24954766 C191.55960372 609.24954766 192.21960372 609.24954766 192.89960372 609.24954766 C192.89960372 609.90954766 192.89960372 610.56954766 192.89960372 611.24954766 C193.90233322 611.37627862 194.90506271 611.50300957 195.93817794 611.63358086 C199.80038498 612.18751302 203.50997152 613.10143851 207.28241622 614.10501641 C207.96971313 614.28696053 208.65701004 614.46890465 209.36513412 614.65636224 C211.58608989 615.24575993 213.80536964 615.84120325 216.02460372 616.43704766 C217.57672964 616.85060477 219.12889467 617.2640151 220.68109787 617.67728204 C229.38478256 620.00143792 238.05723569 622.41216958 246.7035588 624.94193047 C255.92124403 627.60427398 265.23026894 629.913416 274.52823532 632.27542657 C283.70294489 634.60982371 292.83021663 637.028492 301.89960372 639.74954766 C312.1274582 642.81598748 322.43476323 645.52888883 332.77460372 648.18704766 C333.56383224 648.39071954 334.35306076 648.59439141 335.16620529 648.80423516 C337.40727432 649.38160803 339.64928832 649.95511581 341.89179122 650.52689141 C342.91029663 650.78882539 342.91029663 650.78882539 343.94937789 651.05605096 C347.3817719 651.94988363 347.3817719 651.94988363 350.89960372 652.24954766 C351.55960372 651.58954766 352.21960372 650.92954766 352.89960372 650.24954766 C352.89960372 650.90954766 352.89960372 651.56954766 352.89960372 652.24954766 C354.70364669 651.72167657 354.70364669 651.72167657 356.54413497 651.18314141 C366.72744966 648.2273503 376.93790377 645.43520055 387.21210372 642.81204766 C395.67707372 640.64707394 404.08774121 638.36696856 412.46210372 635.87454766 C421.79473191 633.10506499 431.17292243 630.53765554 440.58710372 628.06204766 C441.2770845 627.88055169 441.96706527 627.69905572 442.67795455 627.51205987 C445.60759957 626.74182258 448.53741629 625.97224232 451.46742904 625.20340508 C461.09265398 622.67663336 470.71113505 620.12450907 480.32797897 617.56604546 C483.36789804 616.75797565 486.40852126 615.95259345 489.44916427 615.14725274 C491.31810257 614.65025827 493.18700102 614.15311391 495.05585372 613.65579766 C495.92192749 613.42704446 496.78800125 613.19829125 497.68031967 612.96260613 C501.89051102 611.88600617 501.89051102 611.88600617 505.89960372 610.24954766 C506.34330233 607.89435478 506.65696953 605.6278084 506.89960372 603.24954766 C506.97776321 602.55461205 507.05592269 601.85967644 507.13645065 601.14368218 C507.39385744 598.81941898 507.63504191 596.49392471 507.87225997 594.16751641 C508.00331382 592.88618577 508.00331382 592.88618577 508.13701522 591.57896966 C508.32019724 589.77971361 508.50251998 587.98036988 508.68402755 586.18094414 C508.96025695 583.45527058 509.24335816 580.73036406 509.52655685 578.00540704 C509.7047182 576.2469867 509.8824659 574.4885244 510.05975997 572.73001641 C510.14411804 571.92863747 510.2284761 571.12725854 510.31539047 570.30159539 C510.81225897 565.27519254 510.94969855 560.34972627 510.83147323 555.29906243 C510.89960372 553.24954766 510.89960372 553.24954766 511.89960372 551.24954766 C512.26787604 548.38416836 512.58828343 545.52977719 512.87225997 542.65579766 C512.95962921 541.79450249 513.04699844 540.93320733 513.13701522 540.04581231 C513.32134071 538.21678794 513.50361978 536.38755637 513.68402755 534.55814141 C513.9583061 531.78790403 514.24197259 529.01874288 514.52655685 526.24954766 C514.70486661 524.46835517 514.88261796 522.68710667 515.05975997 520.90579766 C515.14411804 520.08873345 515.2284761 519.27166924 515.31539047 518.42984551 C515.80647943 513.35878807 515.95095766 508.3874552 515.83147323 503.29288262 C515.89960372 501.24954766 515.89960372 501.24954766 516.89960372 499.24954766 C516.94463233 497.58348938 516.93835294 495.91576382 516.89960372 494.24954766 C516.78849261 489.47176988 516.78849261 489.47176988 517.89960372 487.24954766 C518.56024056 482.76733617 518.98560328 478.25464278 519.46210372 473.74954766 C519.60067794 472.50689141 519.73925216 471.26423516 519.8820256 469.98392266 C520.55889122 463.66206446 521.0543596 457.48198853 520.85248458 451.12259454 C520.89960372 449.24954766 520.89960372 449.24954766 521.89960372 447.24954766 C521.94528802 445.68771566 521.93787708 444.12407884 521.89960372 442.56204766 C521.85785516 439.36132442 521.94427759 436.34644255 522.46210372 433.18704766 C522.60647872 432.21767266 522.75085372 431.24829766 522.89960372 430.24954766 C521.29480465 428.64474858 519.5865098 429.10802293 517.36250961 429.09132928 C516.36841803 429.08154109 515.37432645 429.0717529 514.35011089 429.0616681 C513.23794987 429.05591201 512.12578886 429.05015591 510.97992599 429.04422539 C509.20989511 429.0293675 509.20989511 429.0293675 507.40410602 429.01420945 C504.06184546 428.98758839 500.71961678 428.96572851 497.37731111 428.94619936 C494.43064884 428.92839649 491.48401184 428.90741444 488.53736937 428.88662684 C480.21257943 428.82823975 471.88775307 428.77873292 463.56288683 428.73264706 C458.17014076 428.70271419 452.77741205 428.67080455 447.38468915 428.63695353 C390.50023845 428.27991199 333.61747413 428.2286618 276.7322151 428.28481327 C268.68608605 428.29268653 260.63995618 428.29914259 252.59382576 428.30542898 C243.61168559 428.31244702 234.62954597 428.32010628 225.64740646 428.3279168 C224.75553299 428.32868546 223.86365953 428.32945412 222.94475959 428.33024608 C201.24084831 428.34908323 179.53699478 428.37728105 157.83312532 428.42433283 C143.07418399 428.45624325 128.31525608 428.47811281 113.55628502 428.49023998 C104.61799745 428.49802153 95.67982411 428.51499099 86.74158012 428.5441044 C80.70544331 428.56298806 74.6693543 428.57114632 68.63318814 428.57059502 C65.16776129 428.57062388 61.70252335 428.57561489 58.2371397 428.59369618 C54.49915546 428.61072925 50.76161942 428.60954654 47.0236119 428.60358208 C45.92793816 428.61300291 44.83226443 428.62242373 43.70338845 428.63213003 C42.70968039 428.6267734 41.71597233 428.62141678 40.6921519 428.61589783 C39.83267009 428.61757907 38.97318828 428.6192603 38.08766156 428.62099248 C35.37762047 428.16093575 34.50968374 427.45125616 32.89960372 425.24954766 C32.41338631 422.54852868 32.10625075 420.02482214 31.90741622 417.30032891 C31.80111389 416.07136391 31.80111389 416.07136391 31.69266403 414.81757134 C31.45752373 412.06662469 31.24137324 409.31449799 31.02460372 406.56204766 C30.86001897 404.60237292 30.69396912 402.64282076 30.52655685 400.68338555 C30.16620333 396.45037288 29.81256234 392.21686972 29.46308029 387.9829461 C28.59859984 377.57384157 27.65566294 367.17166271 26.72089279 356.76868218 C26.39606653 353.14761609 26.07332678 349.5263694 25.75116622 345.90506524 C24.61624147 333.15793967 23.45596992 320.41372933 22.25333297 307.67282647 C20.84591021 292.76184418 19.50483614 277.84563427 18.20038497 262.92532891 C18.12449897 262.05734547 18.04861297 261.18936204 17.97042739 260.29507607 C17.20008729 251.47949603 16.43231698 242.66369495 15.66796196 233.84759396 C14.15422746 216.39265649 12.60958947 198.94197272 10.95912826 181.49939507 C9.87309659 170.01843697 8.83957492 158.53324266 7.82215011 147.04602593 C7.29249848 141.06682937 6.76028485 135.08786114 6.22772872 129.10892266 C6.11863174 127.88404641 6.00953475 126.65917016 5.8971318 125.39717644 C4.81299551 113.24487991 3.70463414 101.09482561 2.59473312 88.94486016 C1.78160291 80.03499941 0.97371367 71.1246627 0.1677922 62.21414727 C-0.00558343 60.2976245 -0.17915398 58.38111936 -0.35295975 56.46463555 C-3.13746389 25.74326219 -3.13746389 25.74326219 -3.91289628 11.18704766 C-3.9660701 10.28720147 -4.01924393 9.38735528 -4.07402909 8.46024102 C-4.16616115 6.39204233 -4.14534457 4.31930943 -4.10039628 2.24954766 C-2.10039628 0.24954766 -2.10039628 0.24954766 0 0 Z " fill="#FCFCFC" transform="translate(288.1003962755203,233.7504523396492)"/>
<path d="M0 0 C0.75390916 -0.00175304 1.50781831 -0.00350607 2.2845732 -0.00531223 C4.81913337 -0.00997634 7.35363627 -0.00750568 9.88819885 -0.00507832 C11.7203625 -0.00694607 13.55252576 -0.00924663 15.38468838 -0.01194364 C20.42604187 -0.01807225 25.46737881 -0.0179268 30.50873518 -0.01674926 C35.94301581 -0.01654553 41.37729107 -0.02206135 46.81156921 -0.02680683 C57.45997872 -0.03511935 68.10838269 -0.03786193 78.75679517 -0.03841921 C87.40890408 -0.03889401 96.06101117 -0.04094694 104.71311951 -0.04411983 C129.22811398 -0.05292741 153.74310408 -0.05753895 178.25810015 -0.05678936 C179.24929644 -0.05675944 179.24929644 -0.05675944 180.2605169 -0.05672892 C181.59680963 -0.05668848 182.93310236 -0.05664669 184.2693951 -0.05660353 C205.06787378 -0.05599054 225.86633616 -0.0635016 246.66481018 -0.07717609 C270.02550586 -0.09252882 293.38619093 -0.10113016 316.74689198 -0.10021287 C329.11853589 -0.0998804 341.49016143 -0.10264959 353.86180115 -0.11339092 C364.39256269 -0.12247522 374.92329752 -0.12468822 385.45406127 -0.1178815 C390.8297915 -0.11460602 396.20547042 -0.11459653 401.58119583 -0.12323475 C406.49848 -0.13105528 411.41567178 -0.12971418 416.33295357 -0.12095062 C418.11551965 -0.11940579 419.89809246 -0.12126844 421.68065059 -0.12681069 C424.09695677 -0.13382811 426.51293502 -0.12861092 428.92922974 -0.12025452 C429.62699481 -0.1252227 430.32475988 -0.13019088 431.04366934 -0.13530961 C434.94265379 -0.10665312 438.01667935 0.25272137 441.46461487 2.12863445 C443.57102018 5.28824242 443.69959663 5.79254867 443.50050354 9.34298992 C443.43637016 10.60129116 443.43637016 10.60129116 443.37094116 11.88501263 C443.31290817 12.7878297 443.25487518 13.69064678 443.19508362 14.62082195 C443.14176376 15.56239147 443.08844391 16.50396099 443.0335083 17.47406292 C442.53345136 25.89449046 441.82616399 34.29248175 441.02241516 42.68872356 C440.67170104 46.35586341 440.33267775 50.02406797 439.99238586 53.69218731 C439.80203905 55.74251942 439.61114767 57.79280104 439.41975403 59.8430357 C438.23171161 72.57779125 437.08111516 85.315921 435.93658161 98.0546484 C435.60972465 101.69233283 435.28201776 105.32993497 434.951828 108.96731853 C433.55930784 124.30911889 432.24204567 139.65161047 431.135849 155.01727581 C430.52532461 163.46356884 429.79269029 171.88845455 428.96461487 180.31613445 C427.96054088 190.72215143 427.00953802 201.13005235 426.19898987 211.553195 C425.7332925 217.39033803 425.14757911 223.20915127 424.52320862 229.0309782 C423.42430568 239.30333732 422.49296348 249.58748319 421.58961487 259.87863445 C421.41721747 261.82956636 421.24477164 263.780494 421.07228088 265.73141766 C419.64387614 281.92764063 418.26532646 298.12805475 416.89259338 314.32907391 C415.17310812 334.61665757 413.38124593 354.89742882 411.56503296 375.17656231 C411.23378581 378.87549655 410.90277841 382.5744522 410.5717926 386.27340984 C410.13737513 391.1281521 409.70187067 395.98279503 409.26564026 400.83737469 C409.05965666 403.1349666 408.85384425 405.43257387 408.64820862 407.73019695 C408.54740494 408.85641964 408.44660126 409.98264233 408.34274292 411.14299297 C407.67537866 418.6435464 407.04869937 426.14677985 406.43727112 433.65207195 C405.79590301 441.49700481 405.05458525 449.32307026 404.20544434 457.14807415 C403.20809039 466.3802588 402.401605 475.62861862 401.58961487 484.87863445 C401.4164865 486.83762313 401.24330818 488.7966074 401.07008362 490.75558758 C399.75185062 505.70099758 398.47831488 520.65012037 397.21315002 535.60010052 C395.88345614 551.30678798 394.5113552 567.00922874 393.10743713 582.709445 C392.93871608 584.59656887 392.77001545 586.48369457 392.60133362 588.37082195 C392.51454849 589.34165218 392.42776337 590.31248241 392.33834839 591.31273174 C391.61207138 599.44964119 390.89476901 607.5873302 390.17958832 615.72522068 C389.98308471 617.96102359 389.78645887 620.19681571 389.58979797 622.43260479 C388.80716789 631.32965398 388.80716789 631.32965398 388.02644348 640.22687054 C386.34711663 659.38805503 384.59557774 678.54117877 382.78794861 697.69067669 C382.05920529 705.43929195 381.35407812 713.19005425 380.65211487 720.94113445 C380.57390503 721.80432293 380.49569519 722.66751141 380.41511536 723.55685711 C379.97077296 728.46304235 379.52728008 733.36930377 379.08424377 738.27560711 C378.63491994 743.24937865 378.18374667 748.22298043 377.73170471 753.19650555 C377.13223943 759.7925357 376.53501619 766.38876569 375.93979168 772.9851799 C375.61158103 776.62187227 375.28256054 780.25848633 374.95127869 783.89490032 C373.52133645 799.59901969 372.17238365 815.30224477 371.11167908 831.03647137 C370.70160454 837.08379989 370.2105269 843.105943 369.52711487 849.12863445 C368.31925685 859.91105836 367.47352921 870.72270806 366.60548401 881.53683758 C365.98750803 889.18167171 365.31025669 896.81526025 364.52711487 904.4450407 C363.68506782 912.66632764 362.9488793 920.89434228 362.24586487 929.12863445 C362.14124939 930.34905941 362.03663391 931.56948437 361.92884827 932.8268919 C361.49687322 937.8740024 361.06609169 942.9211985 360.64186096 947.96896648 C360.32671459 951.71007436 360.00548966 955.45062184 359.68336487 959.19113445 C359.54420654 960.87432781 359.54420654 960.87432781 359.40223694 962.59152508 C359.12549914 965.77550017 358.80866945 968.95126193 358.46461487 972.12863445 C358.3506134 973.2396452 358.23661194 974.35065594 358.11915588 975.49533367 C357.9121405 977.10625896 357.9121405 977.10625896 357.70094299 978.7497282 C357.58432312 979.71193279 357.46770325 980.67413738 357.34754944 981.66549969 C356.16169714 984.97368824 354.57485465 985.65211566 351.46461487 987.12863445 C349.2334137 987.96896648 349.2334137 987.96896648 346.92164612 988.63644695 C346.02937317 988.89643475 345.13710022 989.15642254 344.2177887 989.42428875 C343.24736633 989.69797283 342.27694397 989.97165691 341.27711487 990.25363445 C339.73737 990.69606487 339.73737 990.69606487 338.16651917 991.14743328 C327.31467255 994.23328531 316.40153178 997.09831946 305.48146057 999.93185711 C298.01950901 1001.87481708 290.62741128 1003.96186955 283.26808167 1006.26925945 C279.69469079 1007.36464706 276.09800089 1008.26003868 272.46461487 1009.12863445 C268.29452506 1010.1778113 264.12965738 1011.24712296 259.96461487 1012.31613445 C258.91402893 1012.58232586 257.86344299 1012.84851727 256.78102112 1013.12277508 C249.2671342 1015.0560447 241.82152191 1017.1742682 234.37867737 1019.36300945 C220.41041902 1023.46921973 206.37853764 1027.33478065 192.33961487 1031.19113445 C189.8408729 1031.87912553 187.34217485 1032.56727612 184.84352112 1033.25558758 C173.64720932 1036.33844397 162.44824513 1039.41165013 151.24586487 1042.47238445 C150.38621124 1042.70760311 149.52655762 1042.94282177 148.64085388 1043.18516827 C143.85202337 1044.49152307 139.05596409 1045.76544653 134.25009155 1047.00767803 C125.22422231 1049.34075326 116.27580029 1051.90118983 107.33229065 1054.53146648 C101.05443748 1056.37706015 94.7695675 1058.19024063 88.46461487 1059.94113445 C87.76586243 1060.13578289 87.06710999 1060.33043133 86.34718323 1060.5309782 C83.17446503 1061.40759449 80.0000481 1062.24366059 76.80445862 1063.03488445 C70.8470849 1064.51010573 64.94136184 1066.17830688 59.02711487 1067.81613445 C57.74107942 1068.17133555 56.45502774 1068.52647789 55.16896057 1068.88156414 C47.87665339 1070.89686419 40.59099334 1072.93500639 33.30934143 1074.98849773 C24.12879433 1077.57682705 14.94840318 1080.08322035 5.67164612 1082.3044157 C2.45444139 1083.08702982 2.45444139 1083.08702982 -0.65647888 1084.1950407 C-3.31225807 1085.0562771 -5.64087804 1085.50186108 -8.41038513 1085.75363445 C-9.58214294 1085.86578289 -9.58214294 1085.86578289 -10.77757263 1085.98019695 C-11.35765076 1086.02918133 -11.93772888 1086.0781657 -12.53538513 1086.12863445 C-15.13361742 1082.36990433 -15.90866747 1079.8789781 -15.89614868 1075.32631207 C-15.90233467 1073.58689342 -15.90233467 1073.58689342 -15.90864563 1071.81233501 C-15.8978598 1070.54926022 -15.88707397 1069.28618542 -15.8759613 1067.98483562 C-15.87511461 1066.63436178 -15.875591 1065.28388655 -15.87728882 1063.93341351 C-15.87814856 1060.27461387 -15.86052645 1056.61611007 -15.83956695 1052.9573791 C-15.82079653 1049.13104142 -15.81904942 1045.30469674 -15.81549072 1041.47832012 C-15.80617132 1034.23585601 -15.781559 1026.99352796 -15.75144225 1019.75112373 C-15.71789496 1011.50450917 -15.70141141 1003.25788807 -15.68635595 995.01122224 C-15.65500931 978.05028098 -15.60225089 961.08947211 -15.53538513 944.12863445 C-16.19538513 944.12863445 -16.85538513 944.12863445 -17.53538513 944.12863445 C-17.53538513 943.46863445 -17.53538513 942.80863445 -17.53538513 942.12863445 C1.40445999 936.64895111 20.3748088 931.29693313 39.40211487 926.12863445 C40.32782288 925.8771162 41.25353088 925.62559795 42.20729065 925.36645794 C43.13396545 925.11467785 44.06064026 924.86289776 45.01539612 924.60348797 C46.87738236 924.09757324 48.73936156 923.5916326 50.60133362 923.0856657 C51.51514801 922.83736507 52.4289624 922.58906445 53.37046814 922.33323956 C62.49217753 919.85275512 71.60591514 917.34395088 80.71461487 914.81613445 C81.83347076 914.50582287 81.83347076 914.50582287 82.97492981 914.18924236 C91.93174538 911.702451 100.86510393 909.14709172 109.77711487 906.50363445 C119.05131317 903.75554725 128.38893445 901.32682818 137.76539612 898.95373821 C150.57929958 895.70120912 163.27677684 892.07902085 175.97718811 888.41141033 C188.14543038 884.90003789 200.3353198 881.51436358 212.58961487 878.31613445 C224.15742112 875.29630393 235.65776573 872.10164294 247.12086487 868.7028532 C254.8725578 866.40527173 262.66893117 864.27089631 270.46461487 862.12863445 C272.16771878 848.52917101 273.44929201 834.90544756 274.65211487 821.25363445 C274.75555206 820.08932903 274.85898926 818.92502361 274.96556091 817.72543621 C277.2250258 792.29059602 279.35295116 766.84462659 281.48661804 741.39898968 C283.27063799 720.12623021 285.08191306 698.85779422 287.04908752 677.60104656 C288.39379022 663.05287181 289.6535035 648.49784804 290.90211487 633.94113445 C291.32779344 628.98018813 291.75353655 624.01924737 292.17945862 619.05832195 C292.28570557 617.82080181 292.39195251 616.58328167 292.50141907 615.30826092 C293.84230131 599.70884804 295.21246285 584.11200985 296.5849762 568.5153532 C296.79225296 566.15988457 296.99952835 563.80441582 297.20680237 561.44894695 C297.3095195 560.2819627 297.41223663 559.11497845 297.51806641 557.91263103 C298.27957291 549.2533692 299.03336615 540.59345203 299.78492737 531.93332195 C305.60545151 464.91405917 305.60545151 464.91405917 309.28321838 439.35055828 C309.45136047 438.15712811 309.61950256 436.96369793 309.79273987 435.7341032 C309.94646057 434.67344646 310.10018127 433.61278973 310.25856018 432.51999187 C310.36055725 431.33626995 310.36055725 431.33626995 310.46461487 430.12863445 C308.83305898 428.49707857 307.0043884 428.9981028 304.75144958 428.99276257 C303.72445479 428.98790468 302.69746 428.9830468 301.63934416 428.97804171 C299.92452552 428.97759793 299.92452552 428.97759793 298.17506409 428.9771452 C296.3669007 428.97079844 296.3669007 428.97079844 294.52220875 428.96432346 C291.15340347 428.95350268 287.78464215 428.94718821 284.41582592 428.94269042 C280.77539349 428.93673912 277.13497921 428.92502812 273.49455929 428.91399002 C267.14124412 428.89550547 260.78792856 428.88065576 254.43459892 428.86815357 C245.1044532 428.84974657 235.7743296 428.82547428 226.44420155 428.79973403 C211.01572125 428.75726942 195.58723362 428.71888448 180.15873718 428.68280315 C145.40855986 428.60136971 110.65842506 428.50390391 75.90829061 428.40607403 C70.30933264 428.3903242 64.71037427 428.3747274 59.11141551 428.35925957 C-3.11568862 428.18733939 -65.34192363 427.94563712 -127.56825256 427.58304501 C-130.48832656 427.56604455 -133.40840116 427.54915373 -136.32847595 427.53229046 C-158.39749038 427.40471595 -180.46646641 427.27187417 -202.53538513 427.12863445 C-204.74744034 419.71425452 -204.74744034 419.71425452 -205.05027771 416.03171062 C-205.11426254 415.29626019 -205.17824738 414.56080975 -205.24417114 413.80307293 C-205.30546707 413.01718792 -205.366763 412.23130291 -205.42991638 411.4216032 C-205.5384771 410.14138287 -205.5384771 410.14138287 -205.64923096 408.83529949 C-205.88855393 405.99607535 -206.11814535 403.15614876 -206.34788513 400.31613445 C-206.51627034 398.29825174 -206.68539612 396.2804307 -206.85520935 394.26266766 C-207.22197772 389.89790841 -207.58537655 385.53288478 -207.94700623 381.16769695 C-208.55998165 373.79904625 -209.19620536 366.43248433 -209.83616638 359.06613445 C-209.94626541 357.79772213 -210.05636444 356.52930981 -210.1697998 355.22246075 C-210.39124822 352.67186306 -210.61274959 350.12126998 -210.83430481 347.57068157 C-211.74447495 337.09081987 -212.6493744 326.61056949 -213.53538513 316.12863445 C-213.63347473 314.9726878 -213.73156433 313.81674114 -213.83262634 312.6257658 C-214.12025966 309.2168774 -214.40286252 305.80760993 -214.68382263 302.3981657 C-214.77007904 301.37945889 -214.85633545 300.36075207 -214.94520569 299.31117535 C-215.38542124 293.89471518 -215.62314506 288.56290628 -215.53538513 283.12863445 C-212.2278799 281.47488184 -208.53841622 281.99443266 -204.90276146 282.00558662 C-203.9937971 282.00443278 -203.08483274 282.00327894 -202.14832401 282.00209013 C-199.06829125 281.99941965 -195.98830959 282.00394917 -192.90827942 282.00837994 C-190.69153539 282.00794432 -188.47479141 282.0070696 -186.2580477 282.00579077 C-180.13991475 282.00354388 -174.02179914 282.00756975 -167.9036684 282.01256883 C-161.99173598 282.01642916 -156.07980551 282.01560947 -150.16787214 282.01488699 C-138.06981723 282.01357139 -125.97176777 282.01692092 -113.87371445 282.0229044 C-101.89044035 282.02881595 -89.90716852 282.03266924 -77.92389297 282.03375721 C-76.80739686 282.03386032 -76.80739686 282.03386032 -75.66834527 282.03396551 C-71.88845907 282.03430383 -68.10857287 282.03460522 -64.32868667 282.03489239 C-37.53690753 282.03699431 -10.74513135 282.04373588 16.04664612 282.053195 C42.07887252 282.06237536 68.11109811 282.06946097 94.14332581 282.07370281 C94.94537078 282.07383434 95.74741575 282.07396586 96.57376512 282.07410138 C104.62803163 282.07541987 112.68229815 282.07669568 120.73656467 282.07794024 C137.14488736 282.08047663 153.55320999 282.08329789 169.96153259 282.08629131 C171.09324205 282.08649725 171.09324205 282.08649725 172.24781433 282.08670734 C222.65341577 282.09591221 273.05901547 282.11177866 323.46461487 282.12863445 C323.52089603 281.3857565 323.57717719 280.64287855 323.63516384 279.87748915 C323.89363741 276.47245337 324.15342821 273.06751929 324.41323853 269.66258526 C324.545993 267.90984224 324.545993 267.90984224 324.68142939 266.12169027 C325.34459386 257.44825963 326.14341315 248.80383784 327.08570862 240.1559782 C327.23226515 238.77887307 327.37832089 237.40171456 327.52392578 236.02450848 C327.8267213 233.16249135 328.13092313 230.30063054 328.43647766 227.43890667 C330.88372758 204.48809856 333.18999148 181.55503817 334.6655426 158.51706219 C334.74059776 157.36180035 334.74059776 157.36180035 334.81716919 156.18319988 C334.94567522 154.17372558 335.06658927 152.16376957 335.18678284 150.15378094 C335.46461487 147.12863445 335.46461487 147.12863445 336.46461487 144.12863445 C219.64461487 143.79863445 102.82461487 143.46863445 -17.53538513 143.12863445 C-16.87538513 142.79863445 -16.21538513 142.46863445 -15.53538513 142.12863445 C-15.53815051 141.42018477 -15.54091589 140.7117351 -15.54376507 139.98181725 C-15.60997236 122.75629173 -15.65964006 105.53079846 -15.69082165 88.30517387 C-15.70630102 79.97504073 -15.72741089 71.64499244 -15.76170349 63.31491375 C-15.7915732 56.05575785 -15.81095235 48.79666339 -15.81765062 41.53744775 C-15.82156702 37.69250848 -15.8307931 33.84774499 -15.8525753 30.00286198 C-15.87290224 26.38562792 -15.87922671 22.76864245 -15.87470818 19.1513567 C-15.87593006 17.18739055 -15.89209203 15.22345162 -15.90864563 13.25955486 C-15.90452164 12.09427761 -15.90039764 10.92900036 -15.89614868 9.72841167 C-15.89891406 8.7135176 -15.90167944 7.69862352 -15.90452862 6.65297508 C-15.53538513 4.12863445 -15.53538513 4.12863445 -14.32533741 2.34114838 C-10.13272567 -0.4989274 -4.88441029 -0.01438739 0 0 Z " fill="#EC662C" transform="translate(655.5353851318359,91.87136554718018)"/>
<path d="M0 0 C1.31658515 0.00032605 1.31658515 0.00032605 2.65976799 0.00065869 C3.67287583 -0.00393993 4.68598368 -0.00853855 5.72979176 -0.01327652 C6.85342523 -0.00813313 7.9770587 -0.00298975 9.13474166 0.0023095 C10.92022702 -0.00131451 10.92022702 -0.00131451 12.74178278 -0.00501174 C16.07091639 -0.00970064 19.39982217 -0.00532562 22.72893521 0.00275026 C26.34119316 0.00934376 29.9534378 0.00442122 33.56569755 0.00095242 C40.74130972 -0.0040816 47.91687648 0.00174462 55.09248302 0.01086639 C63.6825206 0.02131617 72.27254759 0.02051288 80.86259013 0.01948035 C97.69462958 0.01790335 114.5266461 0.02836305 131.35867745 0.04398537 C146.08832263 0.05765538 160.81796369 0.06729805 175.54761398 0.07330865 C278.81337242 0.1166223 382.07903111 0.27101318 530.14572144 0.64053965 C539.96534527 0.66663427 549.78496976 0.69229955 559.60459793 0.71671456 C580.26146852 0.76812911 600.91832454 0.82208206 621.57516038 0.88612527 C623.31789321 0.89152085 625.06062606 0.89691231 626.80335891 0.90229958 C627.65746613 0.90494092 628.51157335 0.90758225 629.39156261 0.91030362 C635.33297714 0.92843572 641.274395 0.94410472 647.21581924 0.95867318 C654.29641163 0.97606789 661.37698357 0.99682135 668.45755192 1.02223488 C672.02669978 1.03495992 675.5958338 1.04610224 679.16499817 1.05296355 C682.99818003 1.0603855 686.83130918 1.07542597 690.66446579 1.09132928 C692.34991599 1.09279653 692.34991599 1.09279653 694.06941569 1.09429342 C695.08252353 1.0997678 696.09563138 1.10524219 697.13943946 1.11088246 C698.0171629 1.1135405 698.89488633 1.11619855 699.79920745 1.11893713 C701.89960372 1.24954766 701.89960372 1.24954766 703.89960372 2.24954766 C702.23182735 33.90163908 699.05156913 65.35707227 695.68085372 96.86356133 C695.59288591 97.68784851 695.50491809 98.51213568 695.41428459 99.36140126 C694.9984709 103.25731905 694.58032987 107.15294205 694.15592086 111.04793328 C693.31354299 118.85278332 692.61546074 126.64194005 692.1547612 134.47992486 C691.89960372 137.24954766 691.89960372 137.24954766 690.89960372 140.24954766 C638.43979031 140.41867149 585.97996003 140.58213074 533.52011305 140.74050331 C530.53374018 140.74952007 527.54736734 140.7585467 524.56099451 140.76757354 C333.11392148 141.34587909 333.11392148 141.34587909 227.33710372 141.31204766 C226.32456307 141.31162343 225.31202241 141.3111992 224.26879871 141.31076211 C200.14572238 141.30046911 176.02266067 141.28216175 151.89960372 141.24954766 C151.98524581 142.18080971 152.0708879 143.11207177 152.15912521 144.07155389 C152.4823384 147.59133954 152.80465782 151.11120484 153.12641037 154.6311242 C153.26473504 156.14244752 153.40339603 157.65374011 153.54242599 159.16499871 C154.40483641 168.54234992 155.211886 177.91991429 155.89960372 187.31204766 C156.66855846 197.6567426 157.60414151 207.98030054 158.59735763 218.30530328 C159.35646311 226.20774669 160.07208424 234.10898228 160.63593185 242.02835625 C161.67659518 256.22184783 163.26108367 270.04904048 164.89960372 284.24954766 C225.94960372 284.57954766 286.99960372 284.90954766 349.89960372 285.24954766 C349.56960372 286.56954766 349.23960372 287.88954766 348.89960372 289.24954766 C348.80930484 291.10757757 348.77333092 292.96854859 348.77262008 294.82877129 C348.76839035 296.53221452 348.76839035 296.53221452 348.76407516 298.27007073 C348.76609939 299.51175515 348.76812362 300.75343957 348.77020919 302.03275079 C348.76845687 303.34364175 348.76670455 304.65453271 348.76489913 306.00514764 C348.76034128 309.59804937 348.7621076 313.19092239 348.76527822 316.78382462 C348.76781031 320.54425034 348.76546191 324.3046736 348.76389205 328.06509942 C348.76207285 334.38000462 348.76447016 340.69489814 348.76923263 347.00980157 C348.77467477 354.31022948 348.77291194 361.61062946 348.76740623 368.9110567 C348.76286803 375.17951559 348.76222802 381.44796607 348.76484489 387.71642607 C348.76640377 391.46010167 348.76661207 395.20376414 348.76330841 398.9474389 C348.7598831 403.12042427 348.764631 407.2933615 348.77020919 411.46634454 C348.76717285 413.32887116 348.76717285 413.32887116 348.76407516 415.22902459 C348.76689498 416.3646534 348.76971481 417.50028222 348.77262008 418.67032403 C348.77299711 419.656978 348.77337413 420.64363198 348.77376258 421.66018456 C348.88860433 424.02321934 349.29134337 425.97764475 349.89960372 428.24954766 C309.94893792 428.31816206 269.99827977 428.37105012 230.04756684 428.40274365 C225.33475287 428.40649593 220.62193901 428.41037888 215.90912521 428.41434258 C214.50172605 428.41552298 214.50172605 428.41552298 213.06589458 428.41672722 C197.85863304 428.42979356 182.6514054 428.45345413 167.444164 428.48100605 C151.84885049 428.50902614 136.25355478 428.52571671 120.65821713 428.53181314 C111.02923122 428.53593665 101.40034112 428.54897659 91.77138469 428.57329706 C85.17517687 428.58911237 78.57901883 428.5939576 71.98279341 428.59005179 C68.17282965 428.58812366 64.3630337 428.59115128 60.55309951 428.60716408 C56.42896245 428.62437157 52.30518612 428.61853924 48.18102157 428.61031121 C46.96800233 428.61904973 45.75498309 428.62778826 44.50520569 428.63679159 C43.40544633 428.63081844 42.30568698 428.6248453 41.17260158 428.61869115 C40.21988327 428.61983031 39.26716496 428.62096947 38.2855764 428.62214315 C35.89960372 428.24954766 35.89960372 428.24954766 34.10931748 426.94466162 C32.06209524 424.07598713 32.1566846 420.71588258 31.90741622 417.30032891 C31.80111389 416.07136391 31.80111389 416.07136391 31.69266403 414.81757134 C31.45752373 412.06662469 31.24137324 409.31449799 31.02460372 406.56204766 C30.86001897 404.60237292 30.69396912 402.64282076 30.52655685 400.68338555 C30.16620333 396.45037288 29.81256234 392.21686972 29.46308029 387.9829461 C28.59859984 377.57384157 27.65566294 367.17166271 26.72089279 356.76868218 C26.39606653 353.14761609 26.07332678 349.5263694 25.75116622 345.90506524 C24.61624147 333.15793967 23.45596992 320.41372933 22.25333297 307.67282647 C20.84591021 292.76184418 19.50483614 277.84563427 18.20038497 262.92532891 C18.12449897 262.05734547 18.04861297 261.18936204 17.97042739 260.29507607 C17.20008729 251.47949603 16.43231698 242.66369495 15.66796196 233.84759396 C14.15422746 216.39265649 12.60958947 198.94197272 10.95912826 181.49939507 C9.87309659 170.01843697 8.83957492 158.53324266 7.82215011 147.04602593 C7.29249848 141.06682937 6.76028485 135.08786114 6.22772872 129.10892266 C6.11863174 127.88404641 6.00953475 126.65917016 5.8971318 125.39717644 C4.81299551 113.24487991 3.70463414 101.09482561 2.59473312 88.94486016 C1.78160291 80.03499941 0.97371367 71.1246627 0.1677922 62.21414727 C-0.00558343 60.2976245 -0.17915398 58.38111936 -0.35295975 56.46463555 C-3.13746389 25.74326219 -3.13746389 25.74326219 -3.91289628 11.18704766 C-3.9660701 10.28720147 -4.01924393 9.38735528 -4.07402909 8.46024102 C-4.16616115 6.39204233 -4.14534457 4.31930943 -4.10039628 2.24954766 C-2.10039628 0.24954766 -2.10039628 0.24954766 0 0 Z " fill="#EAEAEA" transform="translate(288.1003962755203,233.7504523396492)"/>
<path d="M0 0 C17.95841365 -0.04667213 35.91681161 -0.08196531 53.87527275 -0.10362434 C62.21325581 -0.11394725 70.55120124 -0.1280269 78.88916016 -0.15087891 C86.15453208 -0.1707818 93.41987677 -0.18370905 100.6852752 -0.18817699 C104.53405194 -0.19078965 108.38275072 -0.19695144 112.23150253 -0.21146011 C115.85115932 -0.22499513 119.47070574 -0.22923097 123.09038544 -0.22621536 C125.05810449 -0.22703134 127.02581142 -0.23781427 128.99349976 -0.24884033 C130.73935364 -0.24471634 130.73935364 -0.24471634 132.52047729 -0.24050903 C134.0442011 -0.24327441 134.0442011 -0.24327441 135.5987072 -0.24609566 C138 0 138 0 140 2 C140.42498016 4.45858895 140.71477713 6.83233517 140.9375 9.3125 C141.01685791 10.12299805 141.09621582 10.93349609 141.17797852 11.76855469 C142.18260062 22.3572528 142.97906045 32.96659945 143.81958008 43.56933594 C144.85067503 56.51120356 146.06273671 69.42915676 147.3515625 82.34765625 C148.29672991 91.91842835 149.19165426 101.37469716 149 111 C149.66 111 150.32 111 151 111 C151 111.66 151 112.32 151 113 C152.00272949 113.12673096 153.00545898 113.25346191 154.03857422 113.3840332 C157.90078125 113.93796536 161.61036779 114.85189085 165.3828125 115.85546875 C166.07010941 116.03741287 166.75740631 116.21935699 167.4655304 116.40681458 C169.68648616 116.99621227 171.90576592 117.59165559 174.125 118.1875 C175.67712591 118.60105711 177.22929094 119.01446744 178.78149414 119.42773438 C187.48517883 121.75189026 196.15763196 124.16262192 204.80395508 126.69238281 C214.02164031 129.35472632 223.33066522 131.66386834 232.62863159 134.02587891 C242.72758111 136.59543806 252.74986707 139.32282182 262.73168945 142.3203125 C277.3617039 146.66073938 292.20642193 150.26462154 307 154 C308.02428091 157.38156484 308.12330354 160.46111027 308.12025452 163.98577881 C308.12231651 165.8241053 308.12231651 165.8241053 308.12442017 167.6995697 C308.12088128 169.05459619 308.11724648 170.40962244 308.11352539 171.76464844 C308.11324327 173.19379169 308.11340174 174.62293508 308.1139679 176.05207825 C308.1142549 179.92982958 308.10837385 183.80755 308.10139394 187.68529415 C308.09514424 191.73853842 308.09455532 195.79178339 308.09336853 199.84503174 C308.09025999 207.51954548 308.08205301 215.19404498 308.07201904 222.86855245 C308.06084311 231.60608281 308.05534372 240.34361385 308.05032361 249.08114958 C308.03987002 267.05410779 308.02227978 285.02705275 308 303 C303.87726772 301.89352627 299.75488931 300.7857395 295.63256836 299.67773438 C294.47729393 299.3676947 293.3220195 299.05765503 292.13173676 298.73822021 C283.03783448 296.29291584 273.97245452 293.75744589 264.91763306 291.17184448 C252.02695307 287.49454387 239.11941423 283.93660859 226.12890625 280.6262207 C212.23087605 277.06684129 198.42942569 273.15532418 184.61425781 269.28955078 C180.14800007 268.04042109 175.67983538 266.79824102 171.2109375 265.55859375 C170.48949051 265.35845169 169.76804352 265.15830963 169.0247345 264.95210266 C167.56289361 264.54660543 166.10104565 264.14113368 164.63919067 263.73568726 C154.16618798 260.83076998 143.69574856 257.91700556 133.23046875 254.984375 C116.19078204 250.21136721 99.14850461 245.46835882 82.04101562 240.94360352 C72.84015208 238.50461427 63.65727728 236.004439 54.48361206 233.46514893 C52.94669625 233.03987066 51.40953728 232.61546985 49.87210083 232.19207764 C41.89718318 229.99428053 33.95335953 227.7209838 26.0546875 225.26171875 C25.03412766 224.94446587 25.03412766 224.94446587 23.99295044 224.62080383 C19.25709743 223.12854871 19.25709743 223.12854871 17 222 C14.98154382 214.23823399 14.5608089 206.03857685 14.03515625 198.0625 C13.91689735 196.38486572 13.91689735 196.38486572 13.79624939 194.67333984 C13.54626799 191.115911 13.30386608 187.55802283 13.0625 184 C12.74420777 179.37476475 12.42230761 174.74979317 12.09765625 170.125 C12.01383698 168.92972183 11.9300177 167.73444366 11.84365845 166.50294495 C11.10230826 156.09924525 10.24436694 145.70713641 9.36635017 135.31431389 C8.37065832 123.52632785 7.41540353 111.73590375 6.5 99.94140625 C6.43820997 99.14584698 6.37641994 98.3502877 6.31275749 97.53062057 C5.93656899 92.6839916 5.56175358 87.83725725 5.1875 82.99047852 C4.68831961 76.52648239 4.18786827 70.06258544 3.68640137 63.59876633 C3.50142686 61.20983406 3.31755641 58.82081861 3.13378906 56.43179321 C2.49258652 48.12707892 1.82088923 39.82585441 1.109375 31.52685547 C0.89302706 28.97444446 0.67708213 26.42199959 0.46118164 23.8695507 C0.25467409 21.45695053 0.04053194 19.04510704 -0.17382812 16.63319397 C-0.29854822 15.1642669 -0.42291654 13.6953099 -0.546875 12.22631836 C-0.65870117 10.94784531 -0.77052734 9.66937225 -0.88574219 8.35215759 C-0.98956606 5.30611652 -0.65281499 2.94842258 0 0 Z " fill="#EAEAEA" transform="translate(330,732)"/>
<path d="M0 0 C44.80867481 -0.02286741 89.617349 -0.04049875 134.42602848 -0.05106533 C139.71093957 -0.0523161 144.99585065 -0.05361042 150.28076172 -0.05493164 C151.3329335 -0.05519395 152.38510528 -0.05545626 153.46916105 -0.05572652 C170.52650849 -0.06008293 187.58385258 -0.06797032 204.64119802 -0.0771528 C222.1315394 -0.08649014 239.62187902 -0.09205578 257.11222279 -0.09408849 C267.91274008 -0.09546355 278.71324788 -0.09981323 289.51376225 -0.10791647 C296.91076382 -0.11318492 304.30776045 -0.11480407 311.70476376 -0.11350138 C315.97833036 -0.11285815 320.25188035 -0.11387376 324.52544403 -0.11920547 C328.43241711 -0.12404449 332.33936227 -0.12433531 336.24633659 -0.12089889 C337.66493671 -0.1204737 339.08353851 -0.12176521 340.50213526 -0.12488318 C342.42028279 -0.12885632 344.33844076 -0.12615246 346.25658989 -0.12304783 C347.3251229 -0.12342755 348.39365591 -0.12380727 349.49456871 -0.1241985 C352 0 352 0 354 1 C352.33222363 32.65209142 349.1519654 64.10752461 345.78125 95.61401367 C345.69328218 96.43830085 345.60531437 97.26258802 345.51468086 98.1118536 C345.09886717 102.00777139 344.68072615 105.90339439 344.25631714 109.79838562 C343.41393927 117.60323565 342.71585701 125.39239239 342.25515747 133.2303772 C342 136 342 136 341 139 C297.57563845 139.02286452 254.15127754 139.04049728 210.72691116 139.05106533 C205.60594532 139.05231611 200.48497949 139.05361042 195.36401367 139.05493164 C193.83470768 139.05532511 193.83470768 139.05532511 192.27450662 139.05572652 C175.74350546 139.06008362 159.21250777 139.06797138 142.68150867 139.0771528 C125.73244806 139.08648823 108.78338928 139.09205538 91.83432621 139.09408849 C81.36700359 139.09546395 70.89969074 139.09981576 60.43237113 139.10791647 C53.26478051 139.11318257 46.09719499 139.11480461 38.92960257 139.11350138 C34.78780198 139.11285778 30.64601854 139.1138779 26.50422096 139.11920547 C22.71881103 139.12403937 18.93342992 139.12433872 15.14801871 139.12089889 C13.77250473 139.12047319 12.39698901 139.12176901 11.02147848 139.12488318 C9.16384685 139.12884715 7.30620446 139.12615637 5.44857121 139.12304783 C3.89532519 139.12361741 3.89532519 139.12361741 2.31070048 139.1241985 C0 139 0 139 -1 138 C-1.09849655 136.24562549 -1.12632075 134.48725497 -1.12698364 132.7301178 C-1.12980347 131.5873085 -1.13262329 130.44449921 -1.13552856 129.26705933 C-1.13350433 128.00209625 -1.1314801 126.73713318 -1.12939453 125.43383789 C-1.13074858 124.0970505 -1.13252853 122.76026348 -1.13470459 121.42347717 C-1.13927897 117.78301309 -1.13748923 114.14257723 -1.1343255 110.50211263 C-1.1318014 106.69935989 -1.13413963 102.89660964 -1.13571167 99.09385681 C-1.13753344 92.7055518 -1.13512709 86.31725834 -1.13037109 79.92895508 C-1.12493078 72.53596002 -1.12668942 65.14299254 -1.1321975 57.74999815 C-1.13673119 51.41199255 -1.13737785 45.07399526 -1.13475883 38.73598856 C-1.13319717 34.94650122 -1.13299922 31.15702687 -1.13629532 27.36754036 C-1.13917766 23.80451983 -1.13719162 20.24153496 -1.13140106 16.6785183 C-1.12944136 14.74183578 -1.13242446 12.80515026 -1.13552856 10.86846924 C-1.13270874 9.72284012 -1.12988892 8.577211 -1.12698364 7.39686584 C-1.12660662 6.39709748 -1.12622959 5.39732912 -1.12584114 4.36726475 C-1 2 -1 2 0 0 Z " fill="#FCFCFC" transform="translate(638,235)"/>
<path d="M0 0 C22.39153373 0.08378859 44.78299384 0.17888044 67.17442131 0.28752708 C77.57053014 0.3377054 87.96663088 0.38414761 98.36279297 0.421875 C107.42129024 0.45475743 116.47972564 0.49456767 125.53815472 0.54279006 C130.33704762 0.56809247 135.13589928 0.58986257 139.93484116 0.60334396 C144.44754577 0.61613052 148.96010924 0.63814766 153.47273636 0.66738319 C155.13281483 0.67648574 156.79291604 0.6821554 158.45301819 0.68421364 C160.71207627 0.6875174 162.97072952 0.7029427 165.22970581 0.7215271 C166.49624937 0.72705786 167.76279293 0.73258862 169.0677166 0.73828697 C172 1 172 1 174 3 C173.79944956 4.90522914 173.58607501 6.81053363 173.2890625 8.703125 C172.89636999 11.82343843 172.97361913 14.88092546 173.0625 18.01953125 C173 20 173 20 172 23 C172.01491474 25.06675692 172.03118028 27.13351277 172.05419922 29.20019531 C171.94285559 34.95194628 171.19762541 40.66182539 170.5625 46.375 C170.42779297 47.64472656 170.29308594 48.91445313 170.15429688 50.22265625 C169.13262135 59.60213595 169.13262135 59.60213595 168 63 C167.95653999 64.49937028 167.96001421 66.00053305 168 67.5 C168.07891313 70.45924233 167.95553586 72.13339242 167 75 C166.95179916 76.36324727 166.95338969 77.72867713 166.98999023 79.09228516 C167.04288652 83.951266 166.65759993 88.69342656 166.16015625 93.5234375 C166.07374374 94.39142975 165.98733124 95.259422 165.89830017 96.15371704 C165.71634026 97.97069671 165.53219733 99.78745899 165.34594727 101.60400391 C165.06119324 104.387775 164.78500869 107.17230537 164.50976562 109.95703125 C164.33123468 111.72921767 164.15221571 113.501355 163.97265625 115.2734375 C163.8491555 116.52028824 163.8491555 116.52028824 163.72315979 117.79232788 C163.38932889 121.01163516 163.0269641 123.91910769 162 127 C161.9518191 128.36617948 161.95337606 129.73453583 161.98999023 131.10107422 C162.0423584 135.91178471 161.66022468 140.60170102 161.16015625 145.3828125 C161.07374374 146.24131805 160.98733124 147.09982361 160.89830017 147.98434448 C160.71627899 149.78453531 160.53213539 151.58451271 160.34594727 153.38427734 C160.06258037 156.12422289 159.78560227 158.86475585 159.50976562 161.60546875 C159.33109969 163.364621 159.15207547 165.12373691 158.97265625 166.8828125 C158.8491555 168.09869553 158.8491555 168.09869553 158.72315979 169.33914185 C158.56572306 170.85679265 158.40276578 172.37388463 158.2333374 173.89024353 C158.00980251 175.91136904 157.81442881 177.93554932 157.62036133 179.9597168 C157.31328247 181.46465698 157.31328247 181.46465698 157 183 C154.47958333 184.53195137 152.77929552 185.24014334 150 186 C149.21077148 186.2263916 148.42154297 186.4527832 147.60839844 186.68603516 C144.87303127 187.43575517 142.1275068 188.12848204 139.375 188.8125 C131.94396136 190.7033002 124.54815017 192.66397789 117.1875 194.8125 C107.17584832 197.72175213 97.10003609 200.37525876 87.01727295 203.02404785 C77.75868432 205.45757187 68.52158095 207.94635258 59.3125 210.5625 C49.82331899 213.25178298 40.2992646 215.78457118 30.75 218.25 C29.47680908 218.57943604 28.20361816 218.90887207 26.8918457 219.24829102 C18.95393086 221.28577772 10.99440338 223.19697832 3 225 C0.334471 221.0670139 0.73067802 216.82078917 0.76622009 212.26304626 C0.76521681 211.37153085 0.76421353 210.48001543 0.76317984 209.5614844 C0.7622257 206.56816354 0.77558081 203.57507637 0.78881836 200.58178711 C0.79101909 198.43830943 0.79232496 196.29483068 0.7928009 194.15135193 C0.79573667 189.53289228 0.80499211 184.91450328 0.81910515 180.29606438 C0.84133712 172.99844821 0.84945552 165.70085841 0.85560608 158.4032135 C0.86699316 146.8648367 0.88772485 135.32649882 0.91250378 123.78814369 C0.95682054 103.11503478 0.98998477 82.44191214 1.01274782 61.76876837 C1.02117299 54.50892066 1.03521589 47.24911126 1.05372036 39.98928249 C1.064339 35.48007919 1.07093839 30.97087627 1.07652092 26.4616642 C1.08000093 24.36498018 1.08522525 22.26829824 1.09228897 20.17162323 C1.10169472 17.31772454 1.10501102 14.46388218 1.10679626 11.60997009 C1.11107335 10.77321037 1.11535043 9.93645064 1.11975712 9.07433456 C1.11649352 5.78818281 1.04675259 3.14025778 0 0 Z " fill="#ED662C" transform="translate(638,661)"/>
<path d="M0 0 C1.17227626 -0.00339833 1.17227626 -0.00339833 2.36823487 -0.00686532 C5.00138443 -0.01322316 7.63448275 -0.01237481 10.26763916 -0.0115509 C12.1498013 -0.01454134 14.03196282 -0.0179436 15.91412354 -0.02172852 C21.03821476 -0.03058591 26.1622893 -0.0329074 31.28638744 -0.0335443 C35.56068863 -0.0344923 39.83498591 -0.03816946 44.10928559 -0.0417164 C54.19397316 -0.04986809 64.2786518 -0.05230004 74.36334229 -0.05158997 C84.77086446 -0.05098944 95.17833475 -0.06153451 105.5858438 -0.07733363 C114.51499353 -0.0904062 123.4441263 -0.09577396 132.37328553 -0.09513456 C137.70885428 -0.09487942 143.04437698 -0.09773892 148.37993622 -0.10831261 C153.39987538 -0.11798843 158.41972443 -0.11807627 163.43966675 -0.11079597 C165.28191509 -0.10974939 167.12416903 -0.11211739 168.96640778 -0.11815643 C171.48226862 -0.12586913 173.99781778 -0.12123629 176.51367188 -0.11352539 C177.24189266 -0.11866895 177.97011344 -0.12381252 178.72040153 -0.12911195 C183.30519242 -0.09808362 185.95878845 0.61637451 190.51080322 2.13371277 C190.51080322 49.32371277 190.51080322 96.51371277 190.51080322 145.13371277 C128.80080322 145.13371277 67.09080322 145.13371277 3.51080322 145.13371277 C1.26089489 137.2590336 1.26089489 137.2590336 0.99591064 134.03678894 C0.93192581 133.3013385 0.86794098 132.56588806 0.80201721 131.80815125 C0.71007332 130.62932373 0.71007332 130.62932373 0.61627197 129.42668152 C0.54389816 128.57320129 0.47152435 127.71972107 0.3969574 126.84037781 C0.15763443 124.00115367 -0.07195699 121.16122708 -0.30169678 118.32121277 C-0.47008199 116.30333005 -0.63920776 114.28550902 -0.809021 112.26774597 C-1.17578937 107.90298672 -1.5391882 103.5379631 -1.90081787 99.17277527 C-2.51379329 91.80412456 -3.150017 84.43756264 -3.78997803 77.07121277 C-3.90007706 75.80280045 -4.01017609 74.53438812 -4.12361145 73.22753906 C-4.34505987 70.67694138 -4.56656124 68.12634829 -4.78811646 65.57575989 C-5.6982866 55.09589819 -6.60318604 44.61564781 -7.48919678 34.13371277 C-7.63633118 32.39979279 -7.63633118 32.39979279 -7.78643799 30.63084412 C-8.0740713 27.22195572 -8.35667416 23.81268825 -8.63763428 20.40324402 C-8.72389069 19.3845372 -8.81014709 18.36583038 -8.89901733 17.31625366 C-9.33923289 11.89979349 -9.5769567 6.56798459 -9.48919678 1.13371277 C-6.46002148 -0.38087488 -3.32274401 -0.00698047 0 0 Z " fill="#E05027" transform="translate(449.48919677734375,373.8662872314453)"/>
<path d="M0 0 C1 4 1 4 1 4 Z " fill="#000000" transform="translate(1106,1081)"/>
<path d="M0 0 C1 4 1 4 1 4 Z " fill="#000000" transform="translate(1111,1025)"/>
<path d="M0 0 C1 4 1 4 1 4 Z " fill="#000000" transform="translate(1116,969)"/>
<path d="M0 0 C1 4 1 4 1 4 Z " fill="#000000" transform="translate(1151,576)"/>
<path d="M0 0 C1 4 1 4 1 4 Z " fill="#000000" transform="translate(1156,520)"/>
<path d="M0 0 C1 4 1 4 1 4 Z " fill="#000000" transform="translate(1161,464)"/>
<path d="M0 0 C1 4 1 4 1 4 Z " fill="#000000" transform="translate(1196,71)"/>
<path d="M0 0 C1 4 1 4 1 4 Z " fill="#000000" transform="translate(1201,15)"/>
<path d="" fill="#000000" transform="translate(0,0)"/>
<path d="" fill="#000000" transform="translate(0,0)"/>
<path d="" fill="#000000" transform="translate(0,0)"/>
<path d="" fill="#000000" transform="translate(0,0)"/>
<path d="" fill="#000000" transform="translate(0,0)"/>
<path d="" fill="#000000" transform="translate(0,0)"/>
<path d="" fill="#000000" transform="translate(0,0)"/>
<path d="" fill="#000000" transform="translate(0,0)"/>
<path d="" fill="#000000" transform="translate(0,0)"/>
<path d="" fill="#000000" transform="translate(0,0)"/>
<path d="" fill="#000000" transform="translate(0,0)"/>
<path d="" fill="#000000" transform="translate(0,0)"/>
<path d="" fill="#000000" transform="translate(0,0)"/>
</svg>
